<svg width="314" height="406" viewBox="0 0 314 406" fill="none" xmlns="http://www.w3.org/2000/svg">
<path opacity="0.5" d="M146.686 125.046C174.081 109.022 196.729 123.998 200.736 158.58C201.433 164.562 196.903 172.465 191.372 175.696L102 228.005C96.4683 231.236 91.9388 228.616 92.6356 221.804C96.6426 182.638 119.334 141.071 146.686 125.046Z" fill="url(#paint0_linear_348_148)"/>
<path opacity="0.5" d="M116.154 80.1603C116.154 104.044 129.917 115.309 146.903 105.354C163.889 95.3988 177.652 68.0218 177.652 44.138C177.652 20.2541 163.889 8.98896 146.903 18.9442C129.917 28.8995 116.154 56.2764 116.154 80.1603Z" fill="url(#paint1_linear_348_148)"/>
<path opacity="0.07" d="M129.09 110.725C156.485 94.7002 179.133 109.677 183.14 144.258C183.837 150.24 179.307 158.143 173.776 161.374L84.4039 213.683C78.8726 216.914 74.343 214.294 75.0399 207.483C79.0468 168.317 101.695 126.749 129.09 110.725Z" fill="url(#paint2_linear_348_148)"/>
<path opacity="0.07" d="M98.559 65.8387C98.559 89.7226 112.322 100.988 129.308 91.0325C146.294 81.0772 160.057 53.7003 160.057 29.8164C160.057 5.93258 146.294 -5.33257 129.308 4.62268C112.322 14.5779 98.559 41.9549 98.559 65.8387Z" fill="url(#paint3_linear_348_148)"/>
<path opacity="0.2" d="M39.3694 248.186C39.3694 246.586 40.2222 245.107 41.6071 244.306L110.034 204.698C113.023 202.968 116.764 205.125 116.764 208.579V241.235L39.3694 286.033V248.186Z" fill="url(#paint4_linear_348_148)"/>
<path d="M101.042 223.463C101.042 226.782 103.001 228.354 105.44 226.957C107.879 225.559 109.839 221.717 109.839 218.398C109.839 215.08 107.879 213.508 105.44 214.905C103.001 216.303 101.042 220.145 101.042 223.463Z" fill="#BD1B31" fill-opacity="0.5"/>
<path opacity="0.15" d="M96.9472 222.023L73.6895 235.515V240.361L96.9907 226.869L96.9472 222.023Z" fill="#FEFEFE"/>
<path opacity="0.15" d="M96.9473 231.76L47.3833 260.446V265.38L96.9473 236.693V231.76Z" fill="#FEFEFE"/>
<path opacity="0.2" d="M196.598 201.468C196.598 199.867 197.451 198.387 198.837 197.586L267.264 158.017C270.253 156.288 273.993 158.446 273.993 161.899V194.558L196.598 239.357V201.468Z" fill="url(#paint5_linear_348_148)"/>
<path d="M258.27 176.744C258.27 180.062 260.23 181.634 262.669 180.237C265.108 178.84 267.068 174.997 267.068 171.679C267.068 168.36 265.108 166.788 262.669 168.186C260.23 169.583 258.27 173.425 258.27 176.744Z" fill="#BD1B31" fill-opacity="0.5"/>
<path opacity="0.15" d="M254.306 175.521L240.282 183.643V188.576L254.306 180.455V175.521Z" fill="#FEFEFE"/>
<path opacity="0.15" d="M254.176 185.258L204.612 213.945V218.879L254.176 190.192V185.258Z" fill="#FEFEFE"/>
<path opacity="0.3" d="M146.725 251.373C146.727 247.918 142.985 245.759 139.995 247.49L2.3203 327.18C0.936119 327.981 0.083453 329.459 0.0825442 331.058L0.0404691 405.103L133.75 327.732L144.727 331.326C145.693 331.642 146.686 330.922 146.686 329.906L146.725 251.373Z" fill="url(#paint6_linear_348_148)"/>
<path d="M116.938 286.513C116.938 292.845 120.64 295.77 125.257 293.107C129.874 290.443 133.576 283.151 133.576 276.864C133.576 270.533 129.874 267.607 125.257 270.271C120.684 272.934 116.938 280.226 116.938 286.513Z" fill="#BD1B31" fill-opacity="0.5"/>
<path opacity="0.15" d="M109.012 284.068L76.8691 302.669V309.393L109.012 290.793V284.068Z" fill="#FEFEFE"/>
<path opacity="0.15" d="M109.012 297.56L13.0195 353.1V359.824L109.012 304.284V297.56Z" fill="#FEFEFE"/>
<path opacity="0.15" d="M109.012 311.052L33.9689 354.497V361.221L109.012 317.776V311.052Z" fill="#FEFEFE"/>
<path opacity="0.3" d="M166.545 268.183C166.545 266.584 167.399 265.105 168.783 264.304L306.457 184.656C309.447 182.926 313.188 185.086 313.186 188.54L313.147 257.39L179.438 334.761L169.239 349.908C168.415 351.132 166.504 350.548 166.505 349.073L166.545 268.183Z" fill="url(#paint7_linear_348_148)"/>
<path d="M196.337 274.026C196.337 280.357 192.591 287.605 188.018 290.268C183.401 292.932 179.699 289.963 179.699 283.632C179.699 277.3 183.445 270.052 188.018 267.389C192.591 264.769 196.337 267.738 196.337 274.026Z" fill="#BD1B31" fill-opacity="0.5"/>
<path opacity="0.15" d="M204.264 262.455L236.406 243.854V250.578L204.264 269.179V262.455Z" fill="#FEFEFE"/>
<path opacity="0.15" d="M204.22 275.903L300.212 220.364V227.088L204.263 282.628L204.22 275.903Z" fill="#FEFEFE"/>
<path opacity="0.15" d="M204.22 289.395L279.263 245.95V252.674L204.22 296.119V289.395Z" fill="#FEFEFE"/>
<path opacity="0.2" d="M252.129 313.323C249.515 314.807 247.425 318.475 247.425 321.531V334.849L238.627 339.914C236.014 341.398 233.923 345.066 233.923 348.079C233.923 351.091 236.014 352.314 238.627 350.83L247.425 345.721V359.038C247.425 362.051 249.515 363.274 252.129 361.789C254.742 360.304 256.832 356.637 256.832 353.624V340.307L265.63 335.242C268.243 333.757 270.334 330.089 270.334 327.077C270.334 324.064 268.243 322.841 265.63 324.326L256.832 329.391V316.073C256.876 313.017 254.742 311.794 252.129 313.323Z" fill="url(#paint8_linear_348_148)"/>
<path opacity="0.2" d="M62.8883 142.73L50.7804 166.57C49.1254 169.845 49.3867 173.12 51.3902 173.906C53.3937 174.692 56.3553 172.639 58.0103 169.365L58.141 169.059V195.519C58.141 198.532 60.2316 199.754 62.8448 198.27C65.458 196.742 67.5486 193.118 67.5486 190.105V163.645L67.6792 163.776C69.3343 165.129 72.3395 163.732 74.2994 160.632C76.3028 157.532 76.5642 153.951 74.9091 152.598L62.8883 142.73Z" fill="url(#paint9_linear_348_148)"/>
<defs>
<linearGradient id="paint0_linear_348_148" x1="33.6745" y1="98.9145" x2="145.124" y2="180.009" gradientUnits="userSpaceOnUse">
<stop stop-color="white"/>
<stop offset="1" stop-color="white" stop-opacity="0"/>
</linearGradient>
<linearGradient id="paint1_linear_348_148" x1="90.3717" y1="20.8155" x2="201.821" y2="101.91" gradientUnits="userSpaceOnUse">
<stop stop-color="white"/>
<stop offset="1" stop-color="white" stop-opacity="0"/>
</linearGradient>
<linearGradient id="paint2_linear_348_148" x1="16.0712" y1="84.5879" x2="127.521" y2="165.683" gradientUnits="userSpaceOnUse">
<stop stop-color="white"/>
<stop offset="1" stop-color="white" stop-opacity="0"/>
</linearGradient>
<linearGradient id="paint3_linear_348_148" x1="72.769" y1="6.48859" x2="184.218" y2="87.5831" gradientUnits="userSpaceOnUse">
<stop stop-color="white"/>
<stop offset="1" stop-color="white" stop-opacity="0"/>
</linearGradient>
<linearGradient id="paint4_linear_348_148" x1="69.3443" y1="228.26" x2="86.8683" y2="258.545" gradientUnits="userSpaceOnUse">
<stop stop-color="white"/>
<stop offset="1" stop-color="white" stop-opacity="0"/>
</linearGradient>
<linearGradient id="paint5_linear_348_148" x1="226.573" y1="181.546" x2="244.096" y2="211.831" gradientUnits="userSpaceOnUse">
<stop stop-color="white"/>
<stop offset="1" stop-color="white" stop-opacity="0"/>
</linearGradient>
<linearGradient id="paint6_linear_348_148" x1="83.7415" y1="246.087" x2="64.6866" y2="400.249" gradientUnits="userSpaceOnUse">
<stop stop-color="white"/>
<stop offset="1" stop-color="white" stop-opacity="0"/>
</linearGradient>
<linearGradient id="paint7_linear_348_148" x1="198.523" y1="234.913" x2="274.395" y2="294.17" gradientUnits="userSpaceOnUse">
<stop stop-color="white"/>
<stop offset="1" stop-color="white" stop-opacity="0"/>
</linearGradient>
<linearGradient id="paint8_linear_348_148" x1="243.046" y1="330.332" x2="265.893" y2="348.318" gradientUnits="userSpaceOnUse">
<stop stop-color="white"/>
<stop offset="1" stop-color="white" stop-opacity="0"/>
</linearGradient>
<linearGradient id="paint9_linear_348_148" x1="54.2816" y1="166.78" x2="76.3988" y2="179.078" gradientUnits="userSpaceOnUse">
<stop stop-color="white"/>
<stop offset="1" stop-color="white" stop-opacity="0"/>
</linearGradient>
</defs>
</svg>
