<svg width="388" height="335" viewBox="0 0 388 335" fill="none" xmlns="http://www.w3.org/2000/svg">
<g clip-path="url(#clip0_57_487)">
<path d="M334.38 30.8034L9.27002 120.471L17.8813 148.449L342.991 58.7812L334.38 30.8034Z" fill="#3F3D56"/>
<path d="M48.1123 248.983L0.193603 93.296C-0.161653 92.1418 -0.017962 90.9012 0.593043 89.8472C1.20405 88.7932 2.23232 88.0121 3.45167 87.6758L320.68 0.182195C321.9 -0.152967 323.21 -0.016486 324.323 0.561696C325.436 1.13988 326.261 2.11252 326.617 3.26611L369.07 141.194L367.756 141.556L325.304 3.62848C325.049 2.80483 324.459 2.11048 323.664 1.69755C322.869 1.28463 321.934 1.18679 321.063 1.42549L3.83439 88.9192C2.96342 89.1594 2.22894 89.7173 1.79251 90.4702C1.35608 91.223 1.25344 92.1092 1.50718 92.9337L49.4258 248.621L48.1123 248.983Z" fill="#3F3D56"/>
<path d="M298.857 141.834C297.894 141.833 296.958 141.537 296.188 140.991C295.418 140.444 294.856 139.676 294.586 138.802L286.548 112.689C286.22 111.617 286.354 110.466 286.921 109.488C287.488 108.509 288.442 107.784 289.574 107.471L317.159 99.8624C318.291 99.5515 319.507 99.6784 320.541 100.215C321.574 100.752 322.341 101.655 322.672 102.727L330.709 128.839C331.037 129.911 330.903 131.062 330.336 132.041C329.769 133.019 328.815 133.744 327.684 134.058L300.098 141.666C299.695 141.778 299.277 141.834 298.857 141.834Z" fill="#E7344C"/>
<path d="M47.3711 93.7774C47.2885 93.5091 47.1903 93.2453 47.0768 92.9873C46.3056 91.2152 44.8697 89.7755 43.0451 88.9447C41.2206 88.114 39.1361 87.9508 37.1921 88.4865C35.2482 89.0223 33.582 90.2192 32.5137 91.8472C31.4453 93.4753 31.0503 95.4196 31.4044 97.3067C31.4541 97.582 31.5204 97.8544 31.6028 98.1226C32.1023 99.7368 33.1408 101.154 34.5627 102.163C35.9846 103.172 37.7134 103.717 39.4903 103.718C40.2661 103.719 41.038 103.615 41.7821 103.407C43.8706 102.829 45.6318 101.491 46.6796 99.6859C47.7273 97.8807 47.976 95.7559 47.3711 93.7774ZM41.399 102.164C39.6572 102.642 37.7861 102.447 36.196 101.622C34.6058 100.796 33.4263 99.4075 32.9162 97.76C32.8361 97.4916 32.7721 97.2192 32.7245 96.944C32.4679 95.3893 32.8183 93.7993 33.7103 92.4713C34.6022 91.1434 35.9745 90.1685 37.5707 89.7288C39.1668 89.2892 40.8775 89.4149 42.3829 90.0826C43.8882 90.7502 45.085 91.9141 45.7497 93.3564C45.8736 93.6097 45.9766 93.8717 46.0577 94.14C46.5625 95.7888 46.3554 97.5598 45.482 99.0642C44.6085 100.569 43.14 101.683 41.399 102.164V102.164Z" fill="#E7344C"/>
<path d="M27.2366 99.3271C26.7988 97.9039 26.8408 96.3869 27.3569 94.9873C27.8729 93.5878 28.8372 92.3754 30.1155 91.5192C28.9179 91.4639 27.7237 91.6804 26.6324 92.1505C25.541 92.6206 24.5842 93.3308 23.8415 94.2218C23.0988 95.1129 22.5918 96.159 22.3627 97.2731C22.1337 98.3872 22.1891 99.537 22.5245 100.627C22.8599 101.716 23.4655 102.715 24.2909 103.538C25.1163 104.361 26.1376 104.986 27.2696 105.36C28.4017 105.734 29.6117 105.846 30.799 105.688C31.9863 105.53 33.1164 105.105 34.0952 104.449C32.5312 104.377 31.0299 103.845 29.8005 102.927C28.5711 102.009 27.6748 100.75 27.2366 99.3271Z" fill="#E7344C"/>
<path d="M239.897 131.421C239.751 130.926 239.504 130.462 239.169 130.057C238.834 129.652 238.418 129.314 237.944 129.061C237.471 128.809 236.95 128.647 236.41 128.585C235.871 128.523 235.324 128.563 234.8 128.702L189.383 140.727L184.492 142.022H215.208L220.099 140.727L237.03 136.246C238.086 135.965 238.98 135.3 239.518 134.395C240.055 133.49 240.191 132.421 239.897 131.421Z" fill="#CCCCCC"/>
<path d="M207.765 122.439C207.469 121.44 206.766 120.592 205.81 120.084C204.855 119.575 203.724 119.446 202.668 119.726L134.519 137.768C133.567 138.023 132.742 138.592 132.194 139.372C131.646 140.152 131.41 141.092 131.529 142.022H149.172L154.07 140.727L204.899 127.27C205.955 126.989 206.85 126.322 207.388 125.416C207.925 124.51 208.061 123.44 207.765 122.439Z" fill="#CCCCCC"/>
<path d="M383.211 140.726H52.7916C51.522 140.727 50.3048 141.205 49.4071 142.055C48.5093 142.905 48.0044 144.057 48.0029 145.259V330.467C48.0043 331.669 48.5093 332.821 49.407 333.671C50.3048 334.521 51.522 334.999 52.7916 335H383.211C384.481 334.999 385.698 334.521 386.596 333.671C387.493 332.821 387.998 331.669 388 330.467V145.259C387.998 144.057 387.493 142.905 386.596 142.055C385.698 141.205 384.481 140.727 383.211 140.726ZM386.632 330.467C386.631 331.326 386.271 332.149 385.629 332.756C384.988 333.363 384.118 333.704 383.211 333.705H52.7916C51.8845 333.704 51.0147 333.363 50.3733 332.756C49.7319 332.149 49.3715 331.326 49.3711 330.467V145.259C49.3715 144.4 49.732 143.577 50.3734 142.97C51.0148 142.362 51.8846 142.021 52.7916 142.021H383.211C384.118 142.021 384.988 142.362 385.629 142.97C386.271 143.577 386.631 144.4 386.632 145.259V330.467Z" fill="#3F3D56"/>
<path d="M84.9421 165.983C83.3185 165.983 81.7313 165.527 80.3813 164.673C79.0313 163.819 77.9791 162.605 77.3578 161.185C76.7365 159.766 76.5739 158.203 76.8907 156.696C77.2074 155.188 77.9893 153.804 79.1373 152.717C80.2854 151.63 81.7481 150.89 83.3406 150.59C84.933 150.29 86.5836 150.444 88.0836 151.032C89.5836 151.62 90.8657 152.616 91.7678 153.894C92.6698 155.172 93.1513 156.675 93.1513 158.212C93.1488 160.272 92.2831 162.247 90.7441 163.704C89.2051 165.161 87.1185 165.98 84.9421 165.983ZM84.9421 151.736C83.5891 151.736 82.2664 152.116 81.1414 152.827C80.0164 153.539 79.1396 154.55 78.6219 155.733C78.1041 156.917 77.9686 158.219 78.2326 159.475C78.4965 160.731 79.1481 161.885 80.1048 162.791C81.0615 163.696 82.2805 164.313 83.6075 164.563C84.9345 164.813 86.31 164.685 87.56 164.195C88.81 163.704 89.8784 162.874 90.6301 161.809C91.3818 160.744 91.7831 159.492 91.7831 158.212C91.781 156.495 91.0596 154.849 89.7771 153.635C88.4946 152.421 86.7558 151.738 84.9421 151.736Z" fill="#E7344C"/>
<path d="M72.1819 158.212C72.1822 156.729 72.6708 155.284 73.5798 154.077C74.4888 152.87 75.7729 151.961 77.2531 151.478C76.1197 151.108 74.9092 150.999 73.7225 151.162C72.5358 151.324 71.4073 151.752 70.431 152.411C69.4546 153.07 68.6587 153.94 68.1096 154.949C67.5604 155.958 67.2739 157.077 67.2739 158.212C67.2739 159.347 67.5604 160.465 68.1096 161.474C68.6587 162.483 69.4546 163.353 70.431 164.012C71.4073 164.671 72.5358 165.1 73.7225 165.262C74.9092 165.424 76.1197 165.316 77.2531 164.946C75.7729 164.462 74.4888 163.554 73.5798 162.346C72.6708 161.139 72.1822 159.694 72.1819 158.212Z" fill="#E7344C"/>
<path d="M118.219 250.024C116.587 250.023 115.022 249.408 113.867 248.315C112.713 247.223 112.064 245.741 112.062 244.196V226.712C112.062 225.166 112.711 223.683 113.865 222.59C115.02 221.497 116.586 220.883 118.219 220.883C119.852 220.883 121.418 221.497 122.572 222.59C123.727 223.683 124.376 225.166 124.376 226.712V244.196C124.374 245.741 123.725 247.223 122.57 248.315C121.416 249.408 119.851 250.023 118.219 250.024Z" fill="#E7344C"/>
<path d="M134.637 250.024C133.005 250.023 131.44 249.408 130.286 248.315C129.132 247.223 128.482 245.741 128.48 244.196V226.712C128.48 225.166 129.129 223.683 130.284 222.59C131.438 221.497 133.004 220.883 134.637 220.883C136.27 220.883 137.836 221.497 138.991 222.59C140.146 223.683 140.794 225.166 140.794 226.712V244.196C140.792 245.741 140.143 247.223 138.989 248.315C137.835 249.408 136.27 250.023 134.637 250.024Z" fill="#E7344C"/>
<path d="M151.056 250.024C149.423 250.023 147.859 249.408 146.704 248.315C145.55 247.223 144.901 245.741 144.899 244.196V226.712C144.899 225.166 145.548 223.683 146.702 222.59C147.857 221.497 149.423 220.883 151.056 220.883C152.689 220.883 154.255 221.497 155.409 222.59C156.564 223.683 157.213 225.166 157.213 226.712V244.196C157.211 245.741 156.562 247.223 155.407 248.315C154.253 249.408 152.688 250.023 151.056 250.024Z" fill="#E7344C"/>
<path d="M176.367 250.024C174.735 250.023 173.17 249.408 172.016 248.315C170.862 247.223 170.212 245.741 170.21 244.196V226.712C170.21 225.166 170.859 223.683 172.014 222.59C173.168 221.497 174.734 220.883 176.367 220.883C178 220.883 179.566 221.497 180.721 222.59C181.876 223.683 182.524 225.166 182.524 226.712V244.196C182.522 245.741 181.873 247.223 180.719 248.315C179.565 249.408 178 250.023 176.367 250.024Z" fill="#E7344C"/>
<path d="M192.786 250.024C191.153 250.023 189.589 249.408 188.434 248.315C187.28 247.223 186.631 245.741 186.629 244.196V226.712C186.629 225.166 187.278 223.683 188.432 222.59C189.587 221.497 191.153 220.883 192.786 220.883C194.419 220.883 195.985 221.497 197.139 222.59C198.294 223.683 198.943 225.166 198.943 226.712V244.196C198.941 245.741 198.292 247.223 197.137 248.315C195.983 249.408 194.418 250.023 192.786 250.024Z" fill="#E7344C"/>
<path d="M209.204 250.024C207.571 250.023 206.007 249.408 204.852 248.315C203.698 247.223 203.049 245.741 203.047 244.196V226.712C203.047 225.166 203.696 223.683 204.85 222.59C206.005 221.497 207.571 220.883 209.204 220.883C210.837 220.883 212.403 221.497 213.557 222.59C214.712 223.683 215.361 225.166 215.361 226.712V244.196C215.359 245.741 214.71 247.223 213.555 248.315C212.401 249.408 210.836 250.023 209.204 250.024Z" fill="#E7344C"/>
<path d="M234.516 250.024C232.883 250.023 231.319 249.408 230.164 248.315C229.01 247.223 228.361 245.741 228.359 244.196V226.712C228.359 225.166 229.008 223.683 230.162 222.59C231.317 221.497 232.883 220.883 234.516 220.883C236.149 220.883 237.715 221.497 238.869 222.59C240.024 223.683 240.673 225.166 240.673 226.712V244.196C240.671 245.741 240.022 247.223 238.867 248.315C237.713 249.408 236.148 250.023 234.516 250.024Z" fill="#E7344C"/>
<path d="M250.934 250.024C249.301 250.023 247.736 249.408 246.582 248.315C245.428 247.223 244.779 245.741 244.777 244.196V226.712C244.777 225.166 245.426 223.683 246.58 222.59C247.735 221.497 249.301 220.883 250.934 220.883C252.567 220.883 254.133 221.497 255.287 222.59C256.442 223.683 257.091 225.166 257.091 226.712V244.196C257.089 245.741 256.439 247.223 255.285 248.315C254.131 249.408 252.566 250.023 250.934 250.024Z" fill="#E7344C"/>
<path d="M267.352 250.024C265.72 250.023 264.155 249.408 263.001 248.315C261.846 247.223 261.197 245.741 261.195 244.196V226.712C261.195 225.166 261.844 223.683 262.999 222.59C264.153 221.497 265.719 220.883 267.352 220.883C268.985 220.883 270.551 221.497 271.706 222.59C272.86 223.683 273.509 225.166 273.509 226.712V244.196C273.507 245.741 272.858 247.223 271.704 248.315C270.549 249.408 268.985 250.023 267.352 250.024Z" fill="#E7344C"/>
<path d="M292.664 250.024C291.031 250.023 289.466 249.408 288.312 248.315C287.158 247.223 286.509 245.741 286.507 244.196V226.712C286.507 225.166 287.156 223.683 288.31 222.59C289.465 221.497 291.031 220.883 292.664 220.883C294.297 220.883 295.863 221.497 297.017 222.59C298.172 223.683 298.821 225.166 298.821 226.712V244.196C298.819 245.741 298.169 247.223 297.015 248.315C295.861 249.408 294.296 250.023 292.664 250.024Z" fill="#E7344C"/>
<path d="M309.082 250.024C307.45 250.023 305.885 249.408 304.731 248.315C303.576 247.223 302.927 245.741 302.925 244.196V226.712C302.925 225.166 303.574 223.683 304.729 222.59C305.883 221.497 307.449 220.883 309.082 220.883C310.715 220.883 312.281 221.497 313.436 222.59C314.59 223.683 315.239 225.166 315.239 226.712V244.196C315.237 245.741 314.588 247.223 313.434 248.315C312.279 249.408 310.715 250.023 309.082 250.024Z" fill="#E7344C"/>
<path d="M325.501 250.024C323.868 250.023 322.303 249.408 321.149 248.315C319.995 247.223 319.346 245.741 319.344 244.196V226.712C319.344 225.166 319.992 223.683 321.147 222.59C322.302 221.497 323.868 220.883 325.501 220.883C327.134 220.883 328.7 221.497 329.854 222.59C331.009 223.683 331.658 225.166 331.658 226.712V244.196C331.656 245.741 331.006 247.223 329.852 248.315C328.698 249.408 327.133 250.023 325.501 250.024Z" fill="#E7344C"/>
<path d="M159.961 314.891H71.4114C70.3142 314.891 69.262 314.478 68.4861 313.744C67.7103 313.009 67.2744 312.013 67.2744 310.975C67.2744 309.936 67.7103 308.94 68.4861 308.206C69.262 307.471 70.3142 307.059 71.4114 307.059H159.961C161.058 307.059 162.111 307.471 162.887 308.206C163.662 308.94 164.098 309.936 164.098 310.975C164.098 312.013 163.662 313.009 162.887 313.744C162.111 314.478 161.058 314.891 159.961 314.891Z" fill="#E6E6E6"/>
<path d="M131.571 298.054H99.8015C98.7043 298.054 97.6521 297.641 96.8763 296.907C96.1004 296.172 95.6646 295.176 95.6646 294.138C95.6646 293.099 96.1004 292.103 96.8763 291.368C97.6521 290.634 98.7043 290.221 99.8015 290.221H131.571C132.668 290.221 133.721 290.634 134.497 291.368C135.272 292.103 135.708 293.099 135.708 294.138C135.708 295.176 135.272 296.172 134.497 296.907C133.721 297.641 132.668 298.054 131.571 298.054Z" fill="#E6E6E6"/>
<path d="M386.385 179.438H49.125V180.733H386.385V179.438Z" fill="#3F3D56"/>
</g>
<defs>
<clipPath id="clip0_57_487">
<rect width="388" height="335" fill="white"/>
</clipPath>
</defs>
</svg>
