<svg width="790" height="820" viewBox="0 0 790 820" fill="none" xmlns="http://www.w3.org/2000/svg">
<path d="M0 -1.46631H676.325V820.778H0V-1.46631Z" fill="#E7344C"/>
<path opacity="0.5" d="M230.686 246.046C258.081 230.022 280.729 244.998 284.736 279.58C285.433 285.562 280.903 293.465 275.372 296.696L186 349.005C180.468 352.236 175.939 349.616 176.636 342.804C180.643 303.638 203.334 262.071 230.686 246.046Z" fill="url(#paint0_linear_57_314)"/>
<path opacity="0.5" d="M200.154 201.16C200.154 225.044 213.917 236.309 230.903 226.354C247.889 216.399 261.652 189.022 261.652 165.138C261.652 141.254 247.889 129.989 230.903 139.944C213.917 149.899 200.154 177.276 200.154 201.16Z" fill="url(#paint1_linear_57_314)"/>
<path opacity="0.07" d="M213.09 231.725C240.485 215.7 263.133 230.677 267.14 265.258C267.837 271.24 263.307 279.143 257.776 282.374L168.404 334.683C162.873 337.914 158.343 335.294 159.04 328.483C163.047 289.317 185.695 247.749 213.09 231.725Z" fill="url(#paint2_linear_57_314)"/>
<path opacity="0.07" d="M182.559 186.839C182.559 210.723 196.322 221.988 213.308 212.032C230.294 202.077 244.057 174.7 244.057 150.816C244.057 126.933 230.294 115.667 213.308 125.623C196.322 135.578 182.559 162.955 182.559 186.839Z" fill="url(#paint3_linear_57_314)"/>
<path opacity="0.2" d="M123.369 369.186C123.369 367.586 124.222 366.107 125.607 365.306L194.034 325.698C197.023 323.968 200.764 326.125 200.764 329.579V362.235L123.369 407.033V369.186Z" fill="url(#paint4_linear_57_314)"/>
<path d="M185.042 344.463C185.042 347.782 187.001 349.354 189.44 347.957C191.879 346.559 193.839 342.717 193.839 339.398C193.839 336.08 191.879 334.508 189.44 335.905C187.001 337.303 185.042 341.145 185.042 344.463Z" fill="#BD1B31" fill-opacity="0.5"/>
<path opacity="0.15" d="M180.947 343.023L157.69 356.515V361.361L180.991 347.869L180.947 343.023Z" fill="#FEFEFE"/>
<path opacity="0.15" d="M180.947 352.76L131.383 381.446V386.38L180.947 357.693V352.76Z" fill="#FEFEFE"/>
<path opacity="0.2" d="M280.598 322.468C280.598 320.867 281.451 319.387 282.837 318.586L351.264 279.017C354.253 277.288 357.993 279.446 357.993 282.899V315.558L280.598 360.357V322.468Z" fill="url(#paint5_linear_57_314)"/>
<path d="M342.27 297.744C342.27 301.062 344.23 302.634 346.669 301.237C349.108 299.84 351.068 295.997 351.068 292.679C351.068 289.36 349.108 287.788 346.669 289.186C344.23 290.583 342.27 294.425 342.27 297.744Z" fill="#BD1B31" fill-opacity="0.5"/>
<path opacity="0.15" d="M338.306 296.521L324.282 304.643V309.576L338.306 301.455V296.521Z" fill="#FEFEFE"/>
<path opacity="0.15" d="M338.176 306.258L288.612 334.945V339.879L338.176 311.192V306.258Z" fill="#FEFEFE"/>
<path opacity="0.3" d="M230.725 372.373C230.727 368.918 226.985 366.759 223.995 368.49L86.3203 448.18C84.9361 448.981 84.0835 450.459 84.0825 452.058L84.0405 526.103L217.75 448.732L228.727 452.326C229.693 452.642 230.686 451.922 230.686 450.906L230.725 372.373Z" fill="url(#paint6_linear_57_314)"/>
<path d="M200.938 407.513C200.938 413.845 204.64 416.77 209.257 414.107C213.874 411.443 217.576 404.151 217.576 397.864C217.576 391.533 213.874 388.607 209.257 391.271C204.684 393.934 200.938 401.226 200.938 407.513Z" fill="#BD1B31" fill-opacity="0.5"/>
<path opacity="0.15" d="M193.012 405.068L160.869 423.669V430.393L193.012 411.793V405.068Z" fill="#FEFEFE"/>
<path opacity="0.15" d="M193.012 418.56L97.0195 474.1V480.824L193.012 425.284V418.56Z" fill="#FEFEFE"/>
<path opacity="0.15" d="M193.012 432.052L117.969 475.497V482.221L193.012 438.776V432.052Z" fill="#FEFEFE"/>
<path opacity="0.3" d="M250.545 389.183C250.545 387.584 251.399 386.105 252.783 385.304L390.457 305.656C393.447 303.926 397.188 306.086 397.186 309.54L397.147 378.39L263.438 455.761L253.239 470.908C252.415 472.132 250.504 471.548 250.505 470.073L250.545 389.183Z" fill="url(#paint7_linear_57_314)"/>
<path d="M280.337 395.026C280.337 401.357 276.591 408.605 272.018 411.268C267.401 413.932 263.699 410.963 263.699 404.632C263.699 398.3 267.445 391.052 272.018 388.389C276.591 385.769 280.337 388.738 280.337 395.026Z" fill="#BD1B31" fill-opacity="0.5"/>
<path opacity="0.15" d="M288.264 383.455L320.406 364.854V371.578L288.264 390.179V383.455Z" fill="#FEFEFE"/>
<path opacity="0.15" d="M288.22 396.903L384.212 341.364V348.088L288.263 403.628L288.22 396.903Z" fill="#FEFEFE"/>
<path opacity="0.15" d="M288.22 410.395L363.263 366.95V373.674L288.22 417.119V410.395Z" fill="#FEFEFE"/>
<path opacity="0.2" d="M336.129 434.323C333.515 435.807 331.425 439.475 331.425 442.531V455.849L322.627 460.914C320.014 462.398 317.923 466.066 317.923 469.079C317.923 472.091 320.014 473.314 322.627 471.83L331.425 466.721V480.038C331.425 483.051 333.515 484.274 336.129 482.789C338.742 481.304 340.832 477.637 340.832 474.624V461.307L349.63 456.242C352.243 454.757 354.334 451.089 354.334 448.077C354.334 445.064 352.243 443.841 349.63 445.326L340.832 450.391V437.073C340.876 434.017 338.742 432.794 336.129 434.323Z" fill="url(#paint8_linear_57_314)"/>
<path opacity="0.2" d="M146.888 263.73L134.78 287.57C133.125 290.845 133.387 294.12 135.39 294.906C137.394 295.692 140.355 293.639 142.01 290.365L142.141 290.059V316.519C142.141 319.532 144.232 320.754 146.845 319.27C149.458 317.742 151.549 314.118 151.549 311.105V284.645L151.679 284.776C153.334 286.129 156.339 284.732 158.299 281.632C160.303 278.532 160.564 274.951 158.909 273.598L146.888 263.73Z" fill="url(#paint9_linear_57_314)"/>
<path d="M98.2245 568.247C95.8485 568.247 93.6645 567.695 91.6725 566.591C89.7045 565.487 88.1325 563.951 86.9565 561.983C85.8045 559.991 85.2285 557.759 85.2285 555.287C85.2285 552.815 85.8045 550.595 86.9565 548.627C88.1325 546.659 89.7045 545.123 91.6725 544.019C93.6645 542.915 95.8485 542.363 98.2245 542.363C100.601 542.363 102.773 542.915 104.741 544.019C106.733 545.123 108.293 546.659 109.421 548.627C110.573 550.595 111.149 552.815 111.149 555.287C111.149 557.759 110.573 559.991 109.421 561.983C108.269 563.951 106.709 565.487 104.741 566.591C102.773 567.695 100.601 568.247 98.2245 568.247ZM98.2245 562.631C100.241 562.631 101.849 561.959 103.049 560.615C104.273 559.271 104.885 557.495 104.885 555.287C104.885 553.055 104.273 551.279 103.049 549.959C101.849 548.615 100.241 547.943 98.2245 547.943C96.1845 547.943 94.5525 548.603 93.3285 549.923C92.1285 551.243 91.5285 553.031 91.5285 555.287C91.5285 557.519 92.1285 559.307 93.3285 560.651C94.5525 561.971 96.1845 562.631 98.2245 562.631ZM147.834 547.691C150.33 547.691 152.31 548.447 153.774 549.959C155.262 551.471 156.006 553.571 156.006 556.259V567.995H149.886V557.087C149.886 555.791 149.538 554.795 148.842 554.099C148.17 553.379 147.234 553.019 146.034 553.019C144.834 553.019 143.886 553.379 143.19 554.099C142.518 554.795 142.182 555.791 142.182 557.087V567.995H136.062V557.087C136.062 555.791 135.714 554.795 135.018 554.099C134.346 553.379 133.41 553.019 132.21 553.019C131.01 553.019 130.062 553.379 129.366 554.099C128.694 554.795 128.358 555.791 128.358 557.087V567.995H122.202V547.907H128.358V550.427C128.982 549.587 129.798 548.927 130.806 548.447C131.814 547.943 132.954 547.691 134.226 547.691C135.738 547.691 137.082 548.015 138.258 548.663C139.458 549.311 140.394 550.235 141.066 551.435C141.762 550.331 142.71 549.431 143.91 548.735C145.11 548.039 146.418 547.691 147.834 547.691ZM179.248 557.627C179.248 558.203 179.212 558.803 179.14 559.427H165.208C165.304 560.675 165.7 561.635 166.396 562.307C167.116 562.955 167.992 563.279 169.024 563.279C170.56 563.279 171.628 562.631 172.228 561.335H178.78C178.444 562.655 177.832 563.843 176.944 564.899C176.08 565.955 174.988 566.783 173.668 567.383C172.348 567.983 170.872 568.283 169.24 568.283C167.272 568.283 165.52 567.863 163.984 567.023C162.448 566.183 161.248 564.983 160.384 563.423C159.52 561.863 159.088 560.039 159.088 557.951C159.088 555.863 159.508 554.039 160.348 552.479C161.212 550.919 162.412 549.719 163.948 548.879C165.484 548.039 167.248 547.619 169.24 547.619C171.184 547.619 172.912 548.027 174.424 548.843C175.936 549.659 177.112 550.823 177.952 552.335C178.816 553.847 179.248 555.611 179.248 557.627ZM172.948 556.007C172.948 554.951 172.588 554.111 171.868 553.487C171.148 552.863 170.248 552.551 169.168 552.551C168.136 552.551 167.26 552.851 166.54 553.451C165.844 554.051 165.412 554.903 165.244 556.007H172.948ZM188.651 541.355V567.995H182.495V541.355H188.651ZM205.46 547.691C207.764 547.691 209.612 548.459 211.004 549.995C212.396 551.507 213.092 553.595 213.092 556.259V567.995H206.972V557.087C206.972 555.743 206.624 554.699 205.928 553.955C205.232 553.211 204.296 552.839 203.12 552.839C201.944 552.839 201.008 553.211 200.312 553.955C199.616 554.699 199.268 555.743 199.268 557.087V567.995H193.112V541.355H199.268V550.607C199.892 549.719 200.744 549.011 201.824 548.483C202.904 547.955 204.116 547.691 205.46 547.691ZM226.514 568.283C224.546 568.283 222.77 567.863 221.186 567.023C219.626 566.183 218.39 564.983 217.478 563.423C216.59 561.863 216.146 560.039 216.146 557.951C216.146 555.887 216.602 554.075 217.514 552.515C218.426 550.931 219.674 549.719 221.258 548.879C222.842 548.039 224.618 547.619 226.586 547.619C228.554 547.619 230.33 548.039 231.914 548.879C233.498 549.719 234.746 550.931 235.658 552.515C236.57 554.075 237.026 555.887 237.026 557.951C237.026 560.015 236.558 561.839 235.622 563.423C234.71 564.983 233.45 566.183 231.842 567.023C230.258 567.863 228.482 568.283 226.514 568.283ZM226.514 562.955C227.69 562.955 228.686 562.523 229.502 561.659C230.342 560.795 230.762 559.559 230.762 557.951C230.762 556.343 230.354 555.107 229.538 554.243C228.746 553.379 227.762 552.947 226.586 552.947C225.386 552.947 224.39 553.379 223.598 554.243C222.806 555.083 222.41 556.319 222.41 557.951C222.41 559.559 222.794 560.795 223.562 561.659C224.354 562.523 225.338 562.955 226.514 562.955ZM246.448 551.255C247.168 550.151 248.068 549.287 249.148 548.663C250.228 548.015 251.428 547.691 252.748 547.691V554.207H251.056C249.52 554.207 248.368 554.543 247.6 555.215C246.832 555.863 246.448 557.015 246.448 558.671V567.995H240.292V547.907H246.448V551.255ZM269.475 550.751C270.051 549.815 270.879 549.059 271.959 548.483C273.039 547.907 274.275 547.619 275.667 547.619C277.323 547.619 278.823 548.039 280.167 548.879C281.511 549.719 282.567 550.919 283.335 552.479C284.127 554.039 284.523 555.851 284.523 557.915C284.523 559.979 284.127 561.803 283.335 563.387C282.567 564.947 281.511 566.159 280.167 567.023C278.823 567.863 277.323 568.283 275.667 568.283C274.251 568.283 273.015 568.007 271.959 567.455C270.903 566.879 270.075 566.123 269.475 565.187V567.995H263.319V541.355H269.475V550.751ZM278.259 557.915C278.259 556.379 277.827 555.179 276.963 554.315C276.123 553.427 275.079 552.983 273.831 552.983C272.607 552.983 271.563 553.427 270.699 554.315C269.859 555.203 269.439 556.415 269.439 557.951C269.439 559.487 269.859 560.699 270.699 561.587C271.563 562.475 272.607 562.919 273.831 562.919C275.055 562.919 276.099 562.475 276.963 561.587C277.827 560.675 278.259 559.451 278.259 557.915ZM286.529 557.915C286.529 555.851 286.913 554.039 287.681 552.479C288.473 550.919 289.541 549.719 290.885 548.879C292.229 548.039 293.729 547.619 295.385 547.619C296.801 547.619 298.037 547.907 299.093 548.483C300.173 549.059 301.001 549.815 301.577 550.751V547.907H307.733V567.995H301.577V565.151C300.977 566.087 300.137 566.843 299.057 567.419C298.001 567.995 296.765 568.283 295.349 568.283C293.717 568.283 292.229 567.863 290.885 567.023C289.541 566.159 288.473 564.947 287.681 563.387C286.913 561.803 286.529 559.979 286.529 557.915ZM301.577 557.951C301.577 556.415 301.145 555.203 300.281 554.315C299.441 553.427 298.409 552.983 297.185 552.983C295.961 552.983 294.917 553.427 294.053 554.315C293.213 555.179 292.793 556.379 292.793 557.915C292.793 559.451 293.213 560.675 294.053 561.587C294.917 562.475 295.961 562.919 297.185 562.919C298.409 562.919 299.441 562.475 300.281 561.587C301.145 560.699 301.577 559.487 301.577 557.951ZM324.427 547.691C326.779 547.691 328.651 548.459 330.043 549.995C331.459 551.507 332.167 553.595 332.167 556.259V567.995H326.047V557.087C326.047 555.743 325.699 554.699 325.003 553.955C324.307 553.211 323.371 552.839 322.195 552.839C321.019 552.839 320.083 553.211 319.387 553.955C318.691 554.699 318.343 555.743 318.343 557.087V567.995H312.187V547.907H318.343V550.571C318.967 549.683 319.807 548.987 320.863 548.483C321.919 547.955 323.107 547.691 324.427 547.691ZM335.22 557.951C335.22 555.863 335.64 554.039 336.48 552.479C337.344 550.919 338.532 549.719 340.044 548.879C341.58 548.039 343.332 547.619 345.3 547.619C347.82 547.619 349.92 548.279 351.6 549.599C353.304 550.919 354.42 552.779 354.948 555.179H348.396C347.844 553.643 346.776 552.875 345.192 552.875C344.064 552.875 343.164 553.319 342.492 554.207C341.82 555.071 341.484 556.319 341.484 557.951C341.484 559.583 341.82 560.843 342.492 561.731C343.164 562.595 344.064 563.027 345.192 563.027C346.776 563.027 347.844 562.259 348.396 560.723H354.948C354.42 563.075 353.304 564.923 351.6 566.267C349.896 567.611 347.796 568.283 345.3 568.283C343.332 568.283 341.58 567.863 340.044 567.023C338.532 566.183 337.344 564.983 336.48 563.423C335.64 561.863 335.22 560.039 335.22 557.951ZM367.385 568.283C365.417 568.283 363.641 567.863 362.057 567.023C360.497 566.183 359.261 564.983 358.349 563.423C357.461 561.863 357.017 560.039 357.017 557.951C357.017 555.887 357.473 554.075 358.385 552.515C359.297 550.931 360.545 549.719 362.129 548.879C363.713 548.039 365.489 547.619 367.457 547.619C369.425 547.619 371.201 548.039 372.785 548.879C374.369 549.719 375.617 550.931 376.529 552.515C377.441 554.075 377.897 555.887 377.897 557.951C377.897 560.015 377.429 561.839 376.493 563.423C375.581 564.983 374.321 566.183 372.713 567.023C371.129 567.863 369.353 568.283 367.385 568.283ZM367.385 562.955C368.561 562.955 369.557 562.523 370.373 561.659C371.213 560.795 371.633 559.559 371.633 557.951C371.633 556.343 371.225 555.107 370.409 554.243C369.617 553.379 368.633 552.947 367.457 552.947C366.257 552.947 365.261 553.379 364.469 554.243C363.677 555.083 363.281 556.319 363.281 557.951C363.281 559.559 363.665 560.795 364.433 561.659C365.225 562.523 366.209 562.955 367.385 562.955ZM387.568 557.915C387.568 555.851 387.952 554.039 388.72 552.479C389.512 550.919 390.58 549.719 391.924 548.879C393.268 548.039 394.768 547.619 396.424 547.619C397.744 547.619 398.944 547.895 400.024 548.447C401.128 548.999 401.992 549.743 402.616 550.679V541.355H408.772V567.995H402.616V565.115C402.04 566.075 401.212 566.843 400.132 567.419C399.076 567.995 397.84 568.283 396.424 568.283C394.768 568.283 393.268 567.863 391.924 567.023C390.58 566.159 389.512 564.947 388.72 563.387C387.952 561.803 387.568 559.979 387.568 557.915ZM402.616 557.951C402.616 556.415 402.184 555.203 401.32 554.315C400.48 553.427 399.448 552.983 398.224 552.983C397 552.983 395.956 553.427 395.092 554.315C394.252 555.179 393.832 556.379 393.832 557.915C393.832 559.451 394.252 560.675 395.092 561.587C395.956 562.475 397 562.919 398.224 562.919C399.448 562.919 400.48 562.475 401.32 561.587C402.184 560.699 402.616 559.487 402.616 557.951ZM416.322 545.819C415.242 545.819 414.354 545.507 413.658 544.883C412.986 544.235 412.65 543.443 412.65 542.507C412.65 541.547 412.986 540.755 413.658 540.131C414.354 539.483 415.242 539.159 416.322 539.159C417.378 539.159 418.242 539.483 418.914 540.131C419.61 540.755 419.958 541.547 419.958 542.507C419.958 543.443 419.61 544.235 418.914 544.883C418.242 545.507 417.378 545.819 416.322 545.819ZM419.382 547.907V567.995H413.226V547.907H419.382ZM431.475 547.619C432.891 547.619 434.127 547.907 435.183 548.483C436.263 549.059 437.091 549.815 437.667 550.751V547.907H443.823V567.959C443.823 569.807 443.451 571.475 442.707 572.963C441.987 574.475 440.871 575.675 439.359 576.563C437.871 577.451 436.011 577.895 433.779 577.895C430.803 577.895 428.391 577.187 426.543 575.771C424.695 574.379 423.639 572.483 423.375 570.083H429.459C429.651 570.851 430.107 571.451 430.827 571.883C431.547 572.339 432.435 572.567 433.491 572.567C434.763 572.567 435.771 572.195 436.515 571.451C437.283 570.731 437.667 569.567 437.667 567.959V565.115C437.067 566.051 436.239 566.819 435.183 567.419C434.127 567.995 432.891 568.283 431.475 568.283C429.819 568.283 428.319 567.863 426.975 567.023C425.631 566.159 424.563 564.947 423.771 563.387C423.003 561.803 422.619 559.979 422.619 557.915C422.619 555.851 423.003 554.039 423.771 552.479C424.563 550.919 425.631 549.719 426.975 548.879C428.319 548.039 429.819 547.619 431.475 547.619ZM437.667 557.951C437.667 556.415 437.235 555.203 436.371 554.315C435.531 553.427 434.499 552.983 433.275 552.983C432.051 552.983 431.007 553.427 430.143 554.315C429.303 555.179 428.883 556.379 428.883 557.915C428.883 559.451 429.303 560.675 430.143 561.587C431.007 562.475 432.051 562.919 433.275 562.919C434.499 562.919 435.531 562.475 436.371 561.587C437.235 560.699 437.667 559.487 437.667 557.951ZM451.372 545.819C450.292 545.819 449.404 545.507 448.708 544.883C448.036 544.235 447.7 543.443 447.7 542.507C447.7 541.547 448.036 540.755 448.708 540.131C449.404 539.483 450.292 539.159 451.372 539.159C452.428 539.159 453.292 539.483 453.964 540.131C454.66 540.755 455.008 541.547 455.008 542.507C455.008 543.443 454.66 544.235 453.964 544.883C453.292 545.507 452.428 545.819 451.372 545.819ZM454.432 547.907V567.995H448.276V547.907H454.432ZM470.09 562.775V567.995H466.958C464.726 567.995 462.986 567.455 461.738 566.375C460.49 565.271 459.866 563.483 459.866 561.011V553.019H457.418V547.907H459.866V543.011H466.022V547.907H470.054V553.019H466.022V561.083C466.022 561.683 466.166 562.115 466.454 562.379C466.742 562.643 467.222 562.775 467.894 562.775H470.09ZM472.295 557.915C472.295 555.851 472.679 554.039 473.447 552.479C474.239 550.919 475.307 549.719 476.651 548.879C477.995 548.039 479.495 547.619 481.151 547.619C482.567 547.619 483.803 547.907 484.859 548.483C485.939 549.059 486.767 549.815 487.343 550.751V547.907H493.499V567.995H487.343V565.151C486.743 566.087 485.903 566.843 484.823 567.419C483.767 567.995 482.531 568.283 481.115 568.283C479.483 568.283 477.995 567.863 476.651 567.023C475.307 566.159 474.239 564.947 473.447 563.387C472.679 561.803 472.295 559.979 472.295 557.915ZM487.343 557.951C487.343 556.415 486.911 555.203 486.047 554.315C485.207 553.427 484.175 552.983 482.951 552.983C481.727 552.983 480.683 553.427 479.819 554.315C478.979 555.179 478.559 556.379 478.559 557.915C478.559 559.451 478.979 560.675 479.819 561.587C480.683 562.475 481.727 562.919 482.951 562.919C484.175 562.919 485.207 562.475 486.047 561.587C486.911 560.699 487.343 559.487 487.343 557.951ZM504.108 541.355V567.995H497.952V541.355H504.108ZM85.0485 599.915C85.0485 597.851 85.4325 596.039 86.2005 594.479C86.9925 592.919 88.0605 591.719 89.4045 590.879C90.7485 590.039 92.2485 589.619 93.9045 589.619C95.2245 589.619 96.4245 589.895 97.5045 590.447C98.6085 590.999 99.4725 591.743 100.097 592.679V583.355H106.253V609.995H100.097V607.115C99.5205 608.075 98.6925 608.843 97.6125 609.419C96.5565 609.995 95.3205 610.283 93.9045 610.283C92.2485 610.283 90.7485 609.863 89.4045 609.023C88.0605 608.159 86.9925 606.947 86.2005 605.387C85.4325 603.803 85.0485 601.979 85.0485 599.915ZM100.097 599.951C100.097 598.415 99.6645 597.203 98.8005 596.315C97.9605 595.427 96.9285 594.983 95.7045 594.983C94.4805 594.983 93.4365 595.427 92.5725 596.315C91.7325 597.179 91.3125 598.379 91.3125 599.915C91.3125 601.451 91.7325 602.675 92.5725 603.587C93.4365 604.475 94.4805 604.919 95.7045 604.919C96.9285 604.919 97.9605 604.475 98.8005 603.587C99.6645 602.699 100.097 601.487 100.097 599.951ZM109.482 599.915C109.482 597.851 109.866 596.039 110.634 594.479C111.426 592.919 112.494 591.719 113.838 590.879C115.182 590.039 116.682 589.619 118.338 589.619C119.754 589.619 120.99 589.907 122.046 590.483C123.126 591.059 123.954 591.815 124.53 592.751V589.907H130.686V609.995H124.53V607.151C123.93 608.087 123.09 608.843 122.01 609.419C120.954 609.995 119.718 610.283 118.302 610.283C116.67 610.283 115.182 609.863 113.838 609.023C112.494 608.159 111.426 606.947 110.634 605.387C109.866 603.803 109.482 601.979 109.482 599.915ZM124.53 599.951C124.53 598.415 124.098 597.203 123.234 596.315C122.394 595.427 121.362 594.983 120.138 594.983C118.914 594.983 117.87 595.427 117.006 596.315C116.166 597.179 115.746 598.379 115.746 599.915C115.746 601.451 116.166 602.675 117.006 603.587C117.87 604.475 118.914 604.919 120.138 604.919C121.362 604.919 122.394 604.475 123.234 603.587C124.098 602.699 124.53 601.487 124.53 599.951ZM141.545 599.915C141.545 597.851 141.929 596.039 142.697 594.479C143.489 592.919 144.557 591.719 145.901 590.879C147.245 590.039 148.745 589.619 150.401 589.619C151.817 589.619 153.053 589.907 154.109 590.483C155.189 591.059 156.017 591.815 156.593 592.751V589.907H162.749V609.995H156.593V607.151C155.993 608.087 155.153 608.843 154.073 609.419C153.017 609.995 151.781 610.283 150.365 610.283C148.733 610.283 147.245 609.863 145.901 609.023C144.557 608.159 143.489 606.947 142.697 605.387C141.929 603.803 141.545 601.979 141.545 599.915ZM156.593 599.951C156.593 598.415 156.161 597.203 155.297 596.315C154.457 595.427 153.425 594.983 152.201 594.983C150.977 594.983 149.933 595.427 149.069 596.315C148.229 597.179 147.809 598.379 147.809 599.915C147.809 601.451 148.229 602.675 149.069 603.587C149.933 604.475 150.977 604.919 152.201 604.919C153.425 604.919 154.457 604.475 155.297 603.587C156.161 602.699 156.593 601.487 156.593 599.951ZM192.834 589.691C195.33 589.691 197.31 590.447 198.774 591.959C200.262 593.471 201.006 595.571 201.006 598.259V609.995H194.886V599.087C194.886 597.791 194.538 596.795 193.842 596.099C193.17 595.379 192.234 595.019 191.034 595.019C189.834 595.019 188.886 595.379 188.19 596.099C187.518 596.795 187.182 597.791 187.182 599.087V609.995H181.062V599.087C181.062 597.791 180.714 596.795 180.018 596.099C179.346 595.379 178.41 595.019 177.21 595.019C176.01 595.019 175.062 595.379 174.366 596.099C173.694 596.795 173.358 597.791 173.358 599.087V609.995H167.202V589.907H173.358V592.427C173.982 591.587 174.798 590.927 175.806 590.447C176.814 589.943 177.954 589.691 179.226 589.691C180.738 589.691 182.082 590.015 183.258 590.663C184.458 591.311 185.394 592.235 186.066 593.435C186.762 592.331 187.71 591.431 188.91 590.735C190.11 590.039 191.418 589.691 192.834 589.691ZM224.248 599.627C224.248 600.203 224.212 600.803 224.14 601.427H210.208C210.304 602.675 210.7 603.635 211.396 604.307C212.116 604.955 212.992 605.279 214.024 605.279C215.56 605.279 216.628 604.631 217.228 603.335H223.78C223.444 604.655 222.832 605.843 221.944 606.899C221.08 607.955 219.988 608.783 218.668 609.383C217.348 609.983 215.872 610.283 214.24 610.283C212.272 610.283 210.52 609.863 208.984 609.023C207.448 608.183 206.248 606.983 205.384 605.423C204.52 603.863 204.088 602.039 204.088 599.951C204.088 597.863 204.508 596.039 205.348 594.479C206.212 592.919 207.412 591.719 208.948 590.879C210.484 590.039 212.248 589.619 214.24 589.619C216.184 589.619 217.912 590.027 219.424 590.843C220.936 591.659 222.112 592.823 222.952 594.335C223.816 595.847 224.248 597.611 224.248 599.627ZM217.948 598.007C217.948 596.951 217.588 596.111 216.868 595.487C216.148 594.863 215.248 594.551 214.168 594.551C213.136 594.551 212.26 594.851 211.54 595.451C210.844 596.051 210.412 596.903 210.244 598.007H217.948ZM218.38 584.759L209.704 588.395V584.147L218.38 579.971V584.759ZM233.651 593.255C234.371 592.151 235.271 591.287 236.351 590.663C237.431 590.015 238.631 589.691 239.951 589.691V596.207H238.259C236.723 596.207 235.571 596.543 234.803 597.215C234.035 597.863 233.651 599.015 233.651 600.671V609.995H227.495V589.907H233.651V593.255ZM245.99 587.819C244.91 587.819 244.022 587.507 243.326 586.883C242.654 586.235 242.318 585.443 242.318 584.507C242.318 583.547 242.654 582.755 243.326 582.131C244.022 581.483 244.91 581.159 245.99 581.159C247.046 581.159 247.91 581.483 248.582 582.131C249.278 582.755 249.626 583.547 249.626 584.507C249.626 585.443 249.278 586.235 248.582 586.883C247.91 587.507 247.046 587.819 245.99 587.819ZM249.05 589.907V609.995H242.894V589.907H249.05ZM252.287 599.951C252.287 597.863 252.707 596.039 253.547 594.479C254.411 592.919 255.599 591.719 257.111 590.879C258.647 590.039 260.399 589.619 262.367 589.619C264.887 589.619 266.987 590.279 268.667 591.599C270.371 592.919 271.487 594.779 272.015 597.179H265.463C264.911 595.643 263.843 594.875 262.259 594.875C261.131 594.875 260.231 595.319 259.559 596.207C258.887 597.071 258.551 598.319 258.551 599.951C258.551 601.583 258.887 602.843 259.559 603.731C260.231 604.595 261.131 605.027 262.259 605.027C263.843 605.027 264.911 604.259 265.463 602.723H272.015C271.487 605.075 270.371 606.923 268.667 608.267C266.963 609.611 264.863 610.283 262.367 610.283C260.399 610.283 258.647 609.863 257.111 609.023C255.599 608.183 254.411 606.983 253.547 605.423C252.707 603.863 252.287 602.039 252.287 599.951ZM274.084 599.915C274.084 597.851 274.468 596.039 275.236 594.479C276.028 592.919 277.096 591.719 278.44 590.879C279.784 590.039 281.284 589.619 282.94 589.619C284.356 589.619 285.592 589.907 286.648 590.483C287.728 591.059 288.556 591.815 289.132 592.751V589.907H295.288V609.995H289.132V607.151C288.532 608.087 287.692 608.843 286.612 609.419C285.556 609.995 284.32 610.283 282.904 610.283C281.272 610.283 279.784 609.863 278.44 609.023C277.096 608.159 276.028 606.947 275.236 605.387C274.468 603.803 274.084 601.979 274.084 599.915ZM289.132 599.951C289.132 598.415 288.7 597.203 287.836 596.315C286.996 595.427 285.964 594.983 284.74 594.983C283.516 594.983 282.472 595.427 281.608 596.315C280.768 597.179 280.348 598.379 280.348 599.915C280.348 601.451 280.768 602.675 281.608 603.587C282.472 604.475 283.516 604.919 284.74 604.919C285.964 604.919 286.996 604.475 287.836 603.587C288.7 602.699 289.132 601.487 289.132 599.951ZM313.526 583.355V609.995H307.37V583.355H313.526ZM316.763 599.915C316.763 597.851 317.147 596.039 317.915 594.479C318.707 592.919 319.775 591.719 321.119 590.879C322.463 590.039 323.963 589.619 325.619 589.619C327.035 589.619 328.271 589.907 329.327 590.483C330.407 591.059 331.235 591.815 331.811 592.751V589.907H337.967V609.995H331.811V607.151C331.211 608.087 330.371 608.843 329.291 609.419C328.235 609.995 326.999 610.283 325.583 610.283C323.951 610.283 322.463 609.863 321.119 609.023C319.775 608.159 318.707 606.947 317.915 605.387C317.147 603.803 316.763 601.979 316.763 599.915ZM331.811 599.951C331.811 598.415 331.379 597.203 330.515 596.315C329.675 595.427 328.643 594.983 327.419 594.983C326.195 594.983 325.151 595.427 324.287 596.315C323.447 597.179 323.027 598.379 323.027 599.915C323.027 601.451 323.447 602.675 324.287 603.587C325.151 604.475 326.195 604.919 327.419 604.919C328.643 604.919 329.675 604.475 330.515 603.587C331.379 602.699 331.811 601.487 331.811 599.951ZM353.617 604.775V609.995H350.485C348.253 609.995 346.513 609.455 345.265 608.375C344.017 607.271 343.393 605.483 343.393 603.011V595.019H340.945V589.907H343.393V585.011H349.549V589.907H353.581V595.019H349.549V603.083C349.549 603.683 349.693 604.115 349.981 604.379C350.269 604.643 350.749 604.775 351.421 604.775H353.617ZM360.142 587.819C359.062 587.819 358.174 587.507 357.478 586.883C356.806 586.235 356.47 585.443 356.47 584.507C356.47 583.547 356.806 582.755 357.478 582.131C358.174 581.483 359.062 581.159 360.142 581.159C361.198 581.159 362.062 581.483 362.734 582.131C363.43 582.755 363.778 583.547 363.778 584.507C363.778 585.443 363.43 586.235 362.734 586.883C362.062 587.507 361.198 587.819 360.142 587.819ZM363.202 589.907V609.995H357.046V589.907H363.202ZM379.903 589.691C382.255 589.691 384.127 590.459 385.519 591.995C386.935 593.507 387.643 595.595 387.643 598.259V609.995H381.523V599.087C381.523 597.743 381.175 596.699 380.479 595.955C379.783 595.211 378.847 594.839 377.671 594.839C376.495 594.839 375.559 595.211 374.863 595.955C374.167 596.699 373.819 597.743 373.819 599.087V609.995H367.663V589.907H373.819V592.571C374.443 591.683 375.283 590.987 376.339 590.483C377.395 589.955 378.583 589.691 379.903 589.691ZM390.697 599.915C390.697 597.851 391.081 596.039 391.849 594.479C392.641 592.919 393.709 591.719 395.053 590.879C396.397 590.039 397.897 589.619 399.553 589.619C400.969 589.619 402.205 589.907 403.261 590.483C404.341 591.059 405.169 591.815 405.745 592.751V589.907H411.901V609.995H405.745V607.151C405.145 608.087 404.305 608.843 403.225 609.419C402.169 609.995 400.933 610.283 399.517 610.283C397.885 610.283 396.397 609.863 395.053 609.023C393.709 608.159 392.641 606.947 391.849 605.387C391.081 603.803 390.697 601.979 390.697 599.915ZM405.745 599.951C405.745 598.415 405.313 597.203 404.449 596.315C403.609 595.427 402.577 594.983 401.353 594.983C400.129 594.983 399.085 595.427 398.221 596.315C397.381 597.179 396.961 598.379 396.961 599.915C396.961 601.451 397.381 602.675 398.221 603.587C399.085 604.475 400.129 604.919 401.353 604.919C402.577 604.919 403.609 604.475 404.449 603.587C405.313 602.699 405.745 601.487 405.745 599.951ZM419.235 610.283C418.155 610.283 417.267 609.971 416.571 609.347C415.899 608.699 415.563 607.907 415.563 606.971C415.563 606.011 415.899 605.207 416.571 604.559C417.267 603.911 418.155 603.587 419.235 603.587C420.291 603.587 421.155 603.911 421.827 604.559C422.523 605.207 422.871 606.011 422.871 606.971C422.871 607.907 422.523 608.699 421.827 609.347C421.155 609.971 420.291 610.283 419.235 610.283Z" fill="white"/>
<path opacity="0.7" d="M88.4468 641.207V658.269H86.1851V641.207H88.4468ZM94.3999 648.297V658.269H92.2319V645.589H94.2827L94.3999 648.297ZM93.8843 651.449L92.9819 651.414C92.9897 650.547 93.1187 649.746 93.3687 649.011C93.6187 648.269 93.9702 647.625 94.4233 647.078C94.8765 646.531 95.4155 646.109 96.0405 645.812C96.6733 645.507 97.3726 645.355 98.1382 645.355C98.7632 645.355 99.3257 645.441 99.8257 645.613C100.326 645.777 100.751 646.043 101.103 646.41C101.462 646.777 101.736 647.254 101.923 647.839C102.111 648.418 102.205 649.125 102.205 649.961V658.269H100.025V649.937C100.025 649.273 99.9272 648.742 99.7319 648.343C99.5366 647.937 99.2515 647.644 98.8765 647.464C98.5015 647.277 98.0405 647.183 97.4937 647.183C96.9546 647.183 96.4624 647.297 96.0171 647.523C95.5796 647.75 95.2007 648.062 94.8804 648.461C94.5679 648.859 94.3218 649.316 94.1421 649.832C93.9702 650.339 93.8843 650.879 93.8843 651.449ZM109.353 656.312L112.822 645.589H115.037L110.478 658.269H109.025L109.353 656.312ZM106.458 645.589L110.033 656.371L110.279 658.269H108.826L104.232 645.589H106.458ZM119.478 645.589V658.269H117.298V645.589H119.478ZM117.134 642.226C117.134 641.875 117.24 641.578 117.451 641.336C117.669 641.093 117.99 640.972 118.412 640.972C118.826 640.972 119.142 641.093 119.361 641.336C119.587 641.578 119.701 641.875 119.701 642.226C119.701 642.562 119.587 642.851 119.361 643.093C119.142 643.328 118.826 643.445 118.412 643.445C117.99 643.445 117.669 643.328 117.451 643.093C117.24 642.851 117.134 642.562 117.134 642.226ZM130.341 654.906C130.341 654.593 130.271 654.304 130.13 654.039C129.998 653.765 129.72 653.519 129.298 653.3C128.884 653.074 128.259 652.879 127.423 652.714C126.72 652.566 126.083 652.39 125.513 652.187C124.951 651.984 124.47 651.738 124.072 651.449C123.681 651.16 123.38 650.82 123.169 650.429C122.958 650.039 122.853 649.582 122.853 649.058C122.853 648.558 122.962 648.086 123.181 647.64C123.408 647.195 123.724 646.8 124.13 646.457C124.544 646.113 125.041 645.843 125.619 645.648C126.197 645.453 126.841 645.355 127.552 645.355C128.568 645.355 129.435 645.535 130.154 645.894C130.873 646.254 131.423 646.734 131.806 647.336C132.189 647.929 132.38 648.589 132.38 649.316H130.212C130.212 648.964 130.107 648.625 129.896 648.297C129.693 647.961 129.392 647.683 128.994 647.464C128.603 647.246 128.123 647.136 127.552 647.136C126.951 647.136 126.462 647.23 126.087 647.418C125.72 647.597 125.451 647.828 125.279 648.109C125.115 648.39 125.033 648.687 125.033 649C125.033 649.234 125.072 649.445 125.15 649.632C125.236 649.812 125.384 649.98 125.595 650.136C125.806 650.285 126.103 650.425 126.486 650.558C126.869 650.691 127.357 650.824 127.951 650.957C128.99 651.191 129.845 651.472 130.517 651.8C131.189 652.129 131.689 652.531 132.017 653.007C132.345 653.484 132.509 654.062 132.509 654.742C132.509 655.297 132.392 655.804 132.158 656.265C131.931 656.726 131.599 657.125 131.162 657.461C130.732 657.789 130.216 658.047 129.615 658.234C129.021 658.414 128.353 658.504 127.611 658.504C126.494 658.504 125.548 658.304 124.775 657.906C124.001 657.507 123.416 656.992 123.017 656.359C122.619 655.726 122.419 655.058 122.419 654.355H124.599C124.63 654.949 124.802 655.422 125.115 655.773C125.427 656.117 125.81 656.363 126.263 656.511C126.716 656.652 127.166 656.722 127.611 656.722C128.205 656.722 128.701 656.644 129.099 656.488C129.505 656.332 129.814 656.117 130.025 655.843C130.236 655.57 130.341 655.257 130.341 654.906ZM140.666 645.589V647.254H133.81V645.589H140.666ZM136.13 642.507H138.298V655.129C138.298 655.558 138.365 655.882 138.498 656.101C138.63 656.32 138.802 656.464 139.013 656.535C139.224 656.605 139.451 656.64 139.693 656.64C139.873 656.64 140.06 656.625 140.255 656.593C140.458 656.554 140.611 656.523 140.712 656.5L140.724 658.269C140.552 658.324 140.326 658.375 140.044 658.422C139.771 658.476 139.439 658.504 139.048 658.504C138.517 658.504 138.029 658.398 137.583 658.187C137.138 657.976 136.783 657.625 136.517 657.132C136.259 656.632 136.13 655.961 136.13 655.117V642.507ZM150.685 656.101V649.574C150.685 649.074 150.583 648.64 150.38 648.273C150.185 647.898 149.888 647.609 149.49 647.406C149.091 647.203 148.599 647.101 148.013 647.101C147.466 647.101 146.986 647.195 146.572 647.382C146.166 647.57 145.845 647.816 145.611 648.121C145.384 648.425 145.271 648.754 145.271 649.105H143.103C143.103 648.652 143.22 648.203 143.455 647.757C143.689 647.312 144.025 646.91 144.462 646.55C144.908 646.183 145.439 645.894 146.056 645.683C146.681 645.464 147.376 645.355 148.142 645.355C149.064 645.355 149.876 645.511 150.58 645.824C151.291 646.136 151.845 646.609 152.244 647.242C152.65 647.867 152.853 648.652 152.853 649.597V655.504C152.853 655.925 152.888 656.375 152.958 656.851C153.037 657.328 153.15 657.738 153.298 658.082V658.269H151.037C150.927 658.019 150.841 657.687 150.779 657.273C150.716 656.851 150.685 656.461 150.685 656.101ZM151.06 650.582L151.083 652.105H148.892C148.275 652.105 147.724 652.156 147.24 652.257C146.755 652.351 146.349 652.496 146.021 652.691C145.693 652.886 145.443 653.132 145.271 653.429C145.099 653.718 145.013 654.058 145.013 654.449C145.013 654.847 145.103 655.211 145.283 655.539C145.462 655.867 145.732 656.129 146.091 656.324C146.458 656.511 146.908 656.605 147.439 656.605C148.103 656.605 148.689 656.464 149.197 656.183C149.705 655.902 150.107 655.558 150.404 655.152C150.708 654.746 150.873 654.351 150.896 653.968L151.822 655.011C151.767 655.339 151.619 655.703 151.376 656.101C151.134 656.5 150.81 656.882 150.404 657.25C150.005 657.609 149.529 657.91 148.974 658.152C148.427 658.386 147.81 658.504 147.123 658.504C146.263 658.504 145.509 658.336 144.861 658C144.22 657.664 143.72 657.214 143.361 656.652C143.009 656.082 142.833 655.445 142.833 654.742C142.833 654.062 142.966 653.464 143.232 652.949C143.498 652.425 143.88 651.992 144.38 651.648C144.88 651.297 145.482 651.031 146.185 650.851C146.888 650.672 147.673 650.582 148.541 650.582H151.06ZM169.599 654.906C169.599 654.593 169.529 654.304 169.388 654.039C169.255 653.765 168.978 653.519 168.556 653.3C168.142 653.074 167.517 652.879 166.681 652.714C165.978 652.566 165.341 652.39 164.771 652.187C164.208 651.984 163.728 651.738 163.33 651.449C162.939 651.16 162.638 650.82 162.427 650.429C162.216 650.039 162.111 649.582 162.111 649.058C162.111 648.558 162.22 648.086 162.439 647.64C162.666 647.195 162.982 646.8 163.388 646.457C163.802 646.113 164.298 645.843 164.876 645.648C165.455 645.453 166.099 645.355 166.81 645.355C167.826 645.355 168.693 645.535 169.412 645.894C170.13 646.254 170.681 646.734 171.064 647.336C171.447 647.929 171.638 648.589 171.638 649.316H169.47C169.47 648.964 169.365 648.625 169.154 648.297C168.951 647.961 168.65 647.683 168.251 647.464C167.861 647.246 167.38 647.136 166.81 647.136C166.208 647.136 165.72 647.23 165.345 647.418C164.978 647.597 164.708 647.828 164.537 648.109C164.373 648.39 164.291 648.687 164.291 649C164.291 649.234 164.33 649.445 164.408 649.632C164.494 649.812 164.642 649.98 164.853 650.136C165.064 650.285 165.361 650.425 165.744 650.558C166.126 650.691 166.615 650.824 167.208 650.957C168.248 651.191 169.103 651.472 169.775 651.8C170.447 652.129 170.947 652.531 171.275 653.007C171.603 653.484 171.767 654.062 171.767 654.742C171.767 655.297 171.65 655.804 171.416 656.265C171.189 656.726 170.857 657.125 170.419 657.461C169.99 657.789 169.474 658.047 168.873 658.234C168.279 658.414 167.611 658.504 166.869 658.504C165.751 658.504 164.806 658.304 164.033 657.906C163.259 657.507 162.673 656.992 162.275 656.359C161.876 655.726 161.677 655.058 161.677 654.355H163.857C163.888 654.949 164.06 655.422 164.373 655.773C164.685 656.117 165.068 656.363 165.521 656.511C165.974 656.652 166.423 656.722 166.869 656.722C167.462 656.722 167.958 656.644 168.357 656.488C168.763 656.332 169.072 656.117 169.283 655.843C169.494 655.57 169.599 655.257 169.599 654.906ZM179.876 658.504C178.994 658.504 178.193 658.355 177.474 658.058C176.763 657.754 176.15 657.328 175.634 656.781C175.126 656.234 174.736 655.586 174.462 654.836C174.189 654.086 174.052 653.265 174.052 652.375V651.882C174.052 650.851 174.205 649.933 174.509 649.129C174.814 648.316 175.228 647.629 175.751 647.066C176.275 646.504 176.869 646.078 177.533 645.789C178.197 645.5 178.884 645.355 179.595 645.355C180.501 645.355 181.283 645.511 181.939 645.824C182.603 646.136 183.146 646.574 183.568 647.136C183.99 647.691 184.302 648.347 184.505 649.105C184.708 649.855 184.81 650.675 184.81 651.566V652.539H175.341V650.769H182.642V650.605C182.611 650.043 182.494 649.496 182.291 648.964C182.095 648.433 181.783 647.996 181.353 647.652C180.923 647.308 180.337 647.136 179.595 647.136C179.103 647.136 178.65 647.242 178.236 647.453C177.822 647.656 177.466 647.961 177.169 648.367C176.873 648.773 176.642 649.269 176.478 649.855C176.314 650.441 176.232 651.117 176.232 651.882V652.375C176.232 652.976 176.314 653.543 176.478 654.074C176.65 654.597 176.896 655.058 177.216 655.457C177.544 655.855 177.939 656.168 178.4 656.394C178.869 656.621 179.4 656.734 179.994 656.734C180.759 656.734 181.408 656.578 181.939 656.265C182.47 655.953 182.935 655.535 183.333 655.011L184.646 656.054C184.373 656.468 184.025 656.863 183.603 657.238C183.181 657.613 182.662 657.918 182.044 658.152C181.435 658.386 180.712 658.504 179.876 658.504ZM195.099 655.339V645.589H197.279V658.269H195.205L195.099 655.339ZM195.509 652.668L196.412 652.644C196.412 653.488 196.322 654.269 196.142 654.988C195.97 655.699 195.689 656.316 195.298 656.839C194.908 657.363 194.396 657.773 193.763 658.07C193.13 658.359 192.361 658.504 191.455 658.504C190.837 658.504 190.271 658.414 189.755 658.234C189.248 658.054 188.81 657.777 188.443 657.402C188.076 657.027 187.791 656.539 187.587 655.937C187.392 655.336 187.294 654.613 187.294 653.769V645.589H189.462V653.793C189.462 654.363 189.525 654.836 189.65 655.211C189.783 655.578 189.958 655.871 190.177 656.089C190.404 656.3 190.654 656.449 190.927 656.535C191.208 656.621 191.498 656.664 191.794 656.664C192.716 656.664 193.447 656.488 193.986 656.136C194.525 655.777 194.912 655.297 195.146 654.695C195.388 654.086 195.509 653.41 195.509 652.668ZM214.529 655.808V640.269H216.708V658.269H214.716L214.529 655.808ZM205.998 652.07V651.824C205.998 650.855 206.115 649.976 206.349 649.187C206.591 648.39 206.931 647.707 207.369 647.136C207.814 646.566 208.341 646.129 208.951 645.824C209.568 645.511 210.255 645.355 211.013 645.355C211.81 645.355 212.505 645.496 213.099 645.777C213.701 646.05 214.208 646.453 214.623 646.984C215.044 647.507 215.376 648.14 215.619 648.882C215.861 649.625 216.029 650.464 216.123 651.402V652.48C216.037 653.41 215.869 654.246 215.619 654.988C215.376 655.73 215.044 656.363 214.623 656.886C214.208 657.41 213.701 657.812 213.099 658.093C212.498 658.367 211.794 658.504 210.99 658.504C210.248 658.504 209.568 658.343 208.951 658.023C208.341 657.703 207.814 657.254 207.369 656.675C206.931 656.097 206.591 655.418 206.349 654.636C206.115 653.847 205.998 652.992 205.998 652.07ZM208.177 651.824V652.07C208.177 652.703 208.24 653.297 208.365 653.851C208.498 654.406 208.701 654.894 208.974 655.316C209.248 655.738 209.595 656.07 210.017 656.312C210.439 656.547 210.943 656.664 211.529 656.664C212.248 656.664 212.837 656.511 213.298 656.207C213.767 655.902 214.142 655.5 214.423 655C214.705 654.5 214.923 653.957 215.08 653.371V650.547C214.986 650.117 214.849 649.703 214.669 649.304C214.498 648.898 214.271 648.539 213.99 648.226C213.716 647.906 213.376 647.652 212.97 647.464C212.572 647.277 212.099 647.183 211.552 647.183C210.958 647.183 210.447 647.308 210.017 647.558C209.595 647.8 209.248 648.136 208.974 648.566C208.701 648.988 208.498 649.48 208.365 650.043C208.24 650.597 208.177 651.191 208.177 651.824ZM222.439 645.589V658.269H220.259V645.589H222.439ZM220.095 642.226C220.095 641.875 220.201 641.578 220.412 641.336C220.63 641.093 220.951 640.972 221.373 640.972C221.787 640.972 222.103 641.093 222.322 641.336C222.548 641.578 222.662 641.875 222.662 642.226C222.662 642.562 222.548 642.851 222.322 643.093C222.103 643.328 221.787 643.445 221.373 643.445C220.951 643.445 220.63 643.328 220.412 643.093C220.201 642.851 220.095 642.562 220.095 642.226ZM228.087 648.297V658.269H225.919V645.589H227.97L228.087 648.297ZM227.572 651.449L226.669 651.414C226.677 650.547 226.806 649.746 227.056 649.011C227.306 648.269 227.658 647.625 228.111 647.078C228.564 646.531 229.103 646.109 229.728 645.812C230.361 645.507 231.06 645.355 231.826 645.355C232.451 645.355 233.013 645.441 233.513 645.613C234.013 645.777 234.439 646.043 234.791 646.41C235.15 646.777 235.423 647.254 235.611 647.839C235.798 648.418 235.892 649.125 235.892 649.961V658.269H233.712V649.937C233.712 649.273 233.615 648.742 233.419 648.343C233.224 647.937 232.939 647.644 232.564 647.464C232.189 647.277 231.728 647.183 231.181 647.183C230.642 647.183 230.15 647.297 229.705 647.523C229.267 647.75 228.888 648.062 228.568 648.461C228.255 648.859 228.009 649.316 227.83 649.832C227.658 650.339 227.572 650.879 227.572 651.449ZM241.353 640.269V658.269H239.185V640.269H241.353ZM240.837 651.449L239.935 651.414C239.943 650.547 240.072 649.746 240.322 649.011C240.572 648.269 240.923 647.625 241.376 647.078C241.83 646.531 242.369 646.109 242.994 645.812C243.626 645.507 244.326 645.355 245.091 645.355C245.716 645.355 246.279 645.441 246.779 645.613C247.279 645.777 247.705 646.043 248.056 646.41C248.416 646.777 248.689 647.254 248.876 647.839C249.064 648.418 249.158 649.125 249.158 649.961V658.269H246.978V649.937C246.978 649.273 246.88 648.742 246.685 648.343C246.49 647.937 246.205 647.644 245.83 647.464C245.455 647.277 244.994 647.183 244.447 647.183C243.908 647.183 243.416 647.297 242.97 647.523C242.533 647.75 242.154 648.062 241.833 648.461C241.521 648.859 241.275 649.316 241.095 649.832C240.923 650.339 240.837 650.879 240.837 651.449ZM257.666 658.504C256.783 658.504 255.982 658.355 255.263 658.058C254.552 657.754 253.939 657.328 253.423 656.781C252.916 656.234 252.525 655.586 252.251 654.836C251.978 654.086 251.841 653.265 251.841 652.375V651.882C251.841 650.851 251.994 649.933 252.298 649.129C252.603 648.316 253.017 647.629 253.541 647.066C254.064 646.504 254.658 646.078 255.322 645.789C255.986 645.5 256.673 645.355 257.384 645.355C258.291 645.355 259.072 645.511 259.728 645.824C260.392 646.136 260.935 646.574 261.357 647.136C261.779 647.691 262.091 648.347 262.294 649.105C262.498 649.855 262.599 650.675 262.599 651.566V652.539H253.13V650.769H260.431V650.605C260.4 650.043 260.283 649.496 260.08 648.964C259.884 648.433 259.572 647.996 259.142 647.652C258.712 647.308 258.126 647.136 257.384 647.136C256.892 647.136 256.439 647.242 256.025 647.453C255.611 647.656 255.255 647.961 254.958 648.367C254.662 648.773 254.431 649.269 254.267 649.855C254.103 650.441 254.021 651.117 254.021 651.882V652.375C254.021 652.976 254.103 653.543 254.267 654.074C254.439 654.597 254.685 655.058 255.005 655.457C255.333 655.855 255.728 656.168 256.189 656.394C256.658 656.621 257.189 656.734 257.783 656.734C258.548 656.734 259.197 656.578 259.728 656.265C260.259 655.953 260.724 655.535 261.123 655.011L262.435 656.054C262.162 656.468 261.814 656.863 261.392 657.238C260.97 657.613 260.451 657.918 259.833 658.152C259.224 658.386 258.501 658.504 257.666 658.504ZM267.486 645.589V658.269H265.306V645.589H267.486ZM265.142 642.226C265.142 641.875 265.248 641.578 265.458 641.336C265.677 641.093 265.998 640.972 266.419 640.972C266.833 640.972 267.15 641.093 267.369 641.336C267.595 641.578 267.708 641.875 267.708 642.226C267.708 642.562 267.595 642.851 267.369 643.093C267.15 643.328 266.833 643.445 266.419 643.445C265.998 643.445 265.677 643.328 265.458 643.093C265.248 642.851 265.142 642.562 265.142 642.226ZM273.134 647.582V658.269H270.966V645.589H273.076L273.134 647.582ZM277.095 645.519L277.083 647.535C276.904 647.496 276.732 647.472 276.568 647.464C276.412 647.449 276.232 647.441 276.029 647.441C275.529 647.441 275.087 647.519 274.705 647.675C274.322 647.832 273.998 648.05 273.732 648.332C273.466 648.613 273.255 648.949 273.099 649.339C272.951 649.722 272.853 650.144 272.806 650.605L272.197 650.957C272.197 650.191 272.271 649.472 272.419 648.8C272.576 648.129 272.814 647.535 273.134 647.019C273.455 646.496 273.861 646.089 274.353 645.8C274.853 645.504 275.447 645.355 276.134 645.355C276.291 645.355 276.47 645.375 276.673 645.414C276.876 645.445 277.017 645.48 277.095 645.519ZM278.291 652.07V651.8C278.291 650.886 278.423 650.039 278.689 649.257C278.955 648.468 279.337 647.785 279.837 647.207C280.337 646.621 280.943 646.168 281.654 645.847C282.365 645.519 283.162 645.355 284.044 645.355C284.935 645.355 285.736 645.519 286.447 645.847C287.166 646.168 287.775 646.621 288.275 647.207C288.783 647.785 289.169 648.468 289.435 649.257C289.701 650.039 289.833 650.886 289.833 651.8V652.07C289.833 652.984 289.701 653.832 289.435 654.613C289.169 655.394 288.783 656.078 288.275 656.664C287.775 657.242 287.169 657.695 286.458 658.023C285.755 658.343 284.958 658.504 284.068 658.504C283.177 658.504 282.376 658.343 281.666 658.023C280.955 657.695 280.345 657.242 279.837 656.664C279.337 656.078 278.955 655.394 278.689 654.613C278.423 653.832 278.291 652.984 278.291 652.07ZM280.458 651.8V652.07C280.458 652.703 280.533 653.3 280.681 653.863C280.83 654.418 281.052 654.91 281.349 655.339C281.654 655.769 282.033 656.109 282.486 656.359C282.939 656.601 283.466 656.722 284.068 656.722C284.662 656.722 285.181 656.601 285.626 656.359C286.08 656.109 286.455 655.769 286.751 655.339C287.048 654.91 287.271 654.418 287.419 653.863C287.576 653.3 287.654 652.703 287.654 652.07V651.8C287.654 651.175 287.576 650.586 287.419 650.031C287.271 649.468 287.044 648.972 286.74 648.543C286.443 648.105 286.068 647.761 285.615 647.511C285.169 647.261 284.646 647.136 284.044 647.136C283.451 647.136 282.927 647.261 282.474 647.511C282.029 647.761 281.654 648.105 281.349 648.543C281.052 648.972 280.83 649.468 280.681 650.031C280.533 650.586 280.458 651.175 280.458 651.8ZM305.888 654.906C305.888 654.593 305.818 654.304 305.677 654.039C305.544 653.765 305.267 653.519 304.845 653.3C304.431 653.074 303.806 652.879 302.97 652.714C302.267 652.566 301.63 652.39 301.06 652.187C300.498 651.984 300.017 651.738 299.619 651.449C299.228 651.16 298.927 650.82 298.716 650.429C298.505 650.039 298.4 649.582 298.4 649.058C298.4 648.558 298.509 648.086 298.728 647.64C298.955 647.195 299.271 646.8 299.677 646.457C300.091 646.113 300.587 645.843 301.166 645.648C301.744 645.453 302.388 645.355 303.099 645.355C304.115 645.355 304.982 645.535 305.701 645.894C306.419 646.254 306.97 646.734 307.353 647.336C307.736 647.929 307.927 648.589 307.927 649.316H305.759C305.759 648.964 305.654 648.625 305.443 648.297C305.24 647.961 304.939 647.683 304.541 647.464C304.15 647.246 303.669 647.136 303.099 647.136C302.498 647.136 302.009 647.23 301.634 647.418C301.267 647.597 300.998 647.828 300.826 648.109C300.662 648.39 300.58 648.687 300.58 649C300.58 649.234 300.619 649.445 300.697 649.632C300.783 649.812 300.931 649.98 301.142 650.136C301.353 650.285 301.65 650.425 302.033 650.558C302.416 650.691 302.904 650.824 303.498 650.957C304.537 651.191 305.392 651.472 306.064 651.8C306.736 652.129 307.236 652.531 307.564 653.007C307.892 653.484 308.056 654.062 308.056 654.742C308.056 655.297 307.939 655.804 307.705 656.265C307.478 656.726 307.146 657.125 306.708 657.461C306.279 657.789 305.763 658.047 305.162 658.234C304.568 658.414 303.9 658.504 303.158 658.504C302.041 658.504 301.095 658.304 300.322 657.906C299.548 657.507 298.962 656.992 298.564 656.359C298.166 655.726 297.966 655.058 297.966 654.355H300.146C300.177 654.949 300.349 655.422 300.662 655.773C300.974 656.117 301.357 656.363 301.81 656.511C302.263 656.652 302.712 656.722 303.158 656.722C303.751 656.722 304.248 656.644 304.646 656.488C305.052 656.332 305.361 656.117 305.572 655.843C305.783 655.57 305.888 655.257 305.888 654.906ZM316.166 658.504C315.283 658.504 314.482 658.355 313.763 658.058C313.052 657.754 312.439 657.328 311.923 656.781C311.416 656.234 311.025 655.586 310.751 654.836C310.478 654.086 310.341 653.265 310.341 652.375V651.882C310.341 650.851 310.494 649.933 310.798 649.129C311.103 648.316 311.517 647.629 312.041 647.066C312.564 646.504 313.158 646.078 313.822 645.789C314.486 645.5 315.173 645.355 315.884 645.355C316.791 645.355 317.572 645.511 318.228 645.824C318.892 646.136 319.435 646.574 319.857 647.136C320.279 647.691 320.591 648.347 320.794 649.105C320.998 649.855 321.099 650.675 321.099 651.566V652.539H311.63V650.769H318.931V650.605C318.9 650.043 318.783 649.496 318.58 648.964C318.384 648.433 318.072 647.996 317.642 647.652C317.212 647.308 316.626 647.136 315.884 647.136C315.392 647.136 314.939 647.242 314.525 647.453C314.111 647.656 313.755 647.961 313.458 648.367C313.162 648.773 312.931 649.269 312.767 649.855C312.603 650.441 312.521 651.117 312.521 651.882V652.375C312.521 652.976 312.603 653.543 312.767 654.074C312.939 654.597 313.185 655.058 313.505 655.457C313.833 655.855 314.228 656.168 314.689 656.394C315.158 656.621 315.689 656.734 316.283 656.734C317.048 656.734 317.697 656.578 318.228 656.265C318.759 655.953 319.224 655.535 319.623 655.011L320.935 656.054C320.662 656.468 320.314 656.863 319.892 657.238C319.47 657.613 318.951 657.918 318.333 658.152C317.724 658.386 317.001 658.504 316.166 658.504ZM325.787 648.109V658.269H323.607V645.589H325.669L325.787 648.109ZM325.341 651.449L324.333 651.414C324.341 650.547 324.455 649.746 324.673 649.011C324.892 648.269 325.216 647.625 325.646 647.078C326.076 646.531 326.611 646.109 327.251 645.812C327.892 645.507 328.634 645.355 329.478 645.355C330.072 645.355 330.619 645.441 331.119 645.613C331.619 645.777 332.052 646.039 332.419 646.398C332.787 646.757 333.072 647.218 333.275 647.781C333.478 648.343 333.58 649.023 333.58 649.82V658.269H331.412V649.925C331.412 649.261 331.298 648.73 331.072 648.332C330.853 647.933 330.541 647.644 330.134 647.464C329.728 647.277 329.251 647.183 328.705 647.183C328.064 647.183 327.529 647.297 327.099 647.523C326.669 647.75 326.326 648.062 326.068 648.461C325.81 648.859 325.623 649.316 325.505 649.832C325.396 650.339 325.341 650.879 325.341 651.449ZM333.556 650.254L332.103 650.699C332.111 650.004 332.224 649.336 332.443 648.695C332.669 648.054 332.994 647.484 333.416 646.984C333.845 646.484 334.373 646.089 334.998 645.8C335.623 645.504 336.337 645.355 337.142 645.355C337.822 645.355 338.423 645.445 338.947 645.625C339.478 645.804 339.923 646.082 340.283 646.457C340.65 646.824 340.927 647.297 341.115 647.875C341.302 648.453 341.396 649.14 341.396 649.937V658.269H339.216V649.914C339.216 649.203 339.103 648.652 338.876 648.261C338.658 647.863 338.345 647.586 337.939 647.429C337.541 647.265 337.064 647.183 336.509 647.183C336.033 647.183 335.611 647.265 335.244 647.429C334.876 647.593 334.568 647.82 334.318 648.109C334.068 648.39 333.876 648.714 333.744 649.082C333.619 649.449 333.556 649.839 333.556 650.254ZM358.013 654.906C358.013 654.593 357.943 654.304 357.802 654.039C357.669 653.765 357.392 653.519 356.97 653.3C356.556 653.074 355.931 652.879 355.095 652.714C354.392 652.566 353.755 652.39 353.185 652.187C352.623 651.984 352.142 651.738 351.744 651.449C351.353 651.16 351.052 650.82 350.841 650.429C350.63 650.039 350.525 649.582 350.525 649.058C350.525 648.558 350.634 648.086 350.853 647.64C351.08 647.195 351.396 646.8 351.802 646.457C352.216 646.113 352.712 645.843 353.291 645.648C353.869 645.453 354.513 645.355 355.224 645.355C356.24 645.355 357.107 645.535 357.826 645.894C358.544 646.254 359.095 646.734 359.478 647.336C359.861 647.929 360.052 648.589 360.052 649.316H357.884C357.884 648.964 357.779 648.625 357.568 648.297C357.365 647.961 357.064 647.683 356.666 647.464C356.275 647.246 355.794 647.136 355.224 647.136C354.623 647.136 354.134 647.23 353.759 647.418C353.392 647.597 353.123 647.828 352.951 648.109C352.787 648.39 352.705 648.687 352.705 649C352.705 649.234 352.744 649.445 352.822 649.632C352.908 649.812 353.056 649.98 353.267 650.136C353.478 650.285 353.775 650.425 354.158 650.558C354.541 650.691 355.029 650.824 355.623 650.957C356.662 651.191 357.517 651.472 358.189 651.8C358.861 652.129 359.361 652.531 359.689 653.007C360.017 653.484 360.181 654.062 360.181 654.742C360.181 655.297 360.064 655.804 359.83 656.265C359.603 656.726 359.271 657.125 358.833 657.461C358.404 657.789 357.888 658.047 357.287 658.234C356.693 658.414 356.025 658.504 355.283 658.504C354.166 658.504 353.22 658.304 352.447 657.906C351.673 657.507 351.087 656.992 350.689 656.359C350.291 655.726 350.091 655.058 350.091 654.355H352.271C352.302 654.949 352.474 655.422 352.787 655.773C353.099 656.117 353.482 656.363 353.935 656.511C354.388 656.652 354.837 656.722 355.283 656.722C355.876 656.722 356.373 656.644 356.771 656.488C357.177 656.332 357.486 656.117 357.697 655.843C357.908 655.57 358.013 655.257 358.013 654.906ZM370.505 656.101V649.574C370.505 649.074 370.404 648.64 370.201 648.273C370.005 647.898 369.708 647.609 369.31 647.406C368.912 647.203 368.419 647.101 367.833 647.101C367.287 647.101 366.806 647.195 366.392 647.382C365.986 647.57 365.666 647.816 365.431 648.121C365.205 648.425 365.091 648.754 365.091 649.105H362.923C362.923 648.652 363.041 648.203 363.275 647.757C363.509 647.312 363.845 646.91 364.283 646.55C364.728 646.183 365.259 645.894 365.876 645.683C366.501 645.464 367.197 645.355 367.962 645.355C368.884 645.355 369.697 645.511 370.4 645.824C371.111 646.136 371.666 646.609 372.064 647.242C372.47 647.867 372.673 648.652 372.673 649.597V655.504C372.673 655.925 372.708 656.375 372.779 656.851C372.857 657.328 372.97 657.738 373.119 658.082V658.269H370.857C370.748 658.019 370.662 657.687 370.599 657.273C370.537 656.851 370.505 656.461 370.505 656.101ZM370.88 650.582L370.904 652.105H368.712C368.095 652.105 367.544 652.156 367.06 652.257C366.576 652.351 366.169 652.496 365.841 652.691C365.513 652.886 365.263 653.132 365.091 653.429C364.919 653.718 364.833 654.058 364.833 654.449C364.833 654.847 364.923 655.211 365.103 655.539C365.283 655.867 365.552 656.129 365.912 656.324C366.279 656.511 366.728 656.605 367.259 656.605C367.923 656.605 368.509 656.464 369.017 656.183C369.525 655.902 369.927 655.558 370.224 655.152C370.529 654.746 370.693 654.351 370.716 653.968L371.642 655.011C371.587 655.339 371.439 655.703 371.197 656.101C370.955 656.5 370.63 656.882 370.224 657.25C369.826 657.609 369.349 657.91 368.794 658.152C368.248 658.386 367.63 658.504 366.943 658.504C366.083 658.504 365.33 658.336 364.681 658C364.041 657.664 363.541 657.214 363.181 656.652C362.83 656.082 362.654 655.445 362.654 654.742C362.654 654.062 362.787 653.464 363.052 652.949C363.318 652.425 363.701 651.992 364.201 651.648C364.701 651.297 365.302 651.031 366.005 650.851C366.708 650.672 367.494 650.582 368.361 650.582H370.88ZM378.439 645.589V658.269H376.259V645.589H378.439ZM376.095 642.226C376.095 641.875 376.201 641.578 376.412 641.336C376.63 641.093 376.951 640.972 377.373 640.972C377.787 640.972 378.103 641.093 378.322 641.336C378.548 641.578 378.662 641.875 378.662 642.226C378.662 642.562 378.548 642.851 378.322 643.093C378.103 643.328 377.787 643.445 377.373 643.445C376.951 643.445 376.63 643.328 376.412 643.093C376.201 642.851 376.095 642.562 376.095 642.226ZM384.087 647.582V658.269H381.919V645.589H384.029L384.087 647.582ZM388.048 645.519L388.037 647.535C387.857 647.496 387.685 647.472 387.521 647.464C387.365 647.449 387.185 647.441 386.982 647.441C386.482 647.441 386.041 647.519 385.658 647.675C385.275 647.832 384.951 648.05 384.685 648.332C384.419 648.613 384.208 648.949 384.052 649.339C383.904 649.722 383.806 650.144 383.759 650.605L383.15 650.957C383.15 650.191 383.224 649.472 383.373 648.8C383.529 648.129 383.767 647.535 384.087 647.019C384.408 646.496 384.814 646.089 385.306 645.8C385.806 645.504 386.4 645.355 387.087 645.355C387.244 645.355 387.423 645.375 387.626 645.414C387.83 645.445 387.97 645.48 388.048 645.519ZM403.998 655.808V640.269H406.177V658.269H404.185L403.998 655.808ZM395.466 652.07V651.824C395.466 650.855 395.583 649.976 395.818 649.187C396.06 648.39 396.4 647.707 396.837 647.136C397.283 646.566 397.81 646.129 398.419 645.824C399.037 645.511 399.724 645.355 400.482 645.355C401.279 645.355 401.974 645.496 402.568 645.777C403.169 646.05 403.677 646.453 404.091 646.984C404.513 647.507 404.845 648.14 405.087 648.882C405.33 649.625 405.498 650.464 405.591 651.402V652.48C405.505 653.41 405.337 654.246 405.087 654.988C404.845 655.73 404.513 656.363 404.091 656.886C403.677 657.41 403.169 657.812 402.568 658.093C401.966 658.367 401.263 658.504 400.458 658.504C399.716 658.504 399.037 658.343 398.419 658.023C397.81 657.703 397.283 657.254 396.837 656.675C396.4 656.097 396.06 655.418 395.818 654.636C395.583 653.847 395.466 652.992 395.466 652.07ZM397.646 651.824V652.07C397.646 652.703 397.708 653.297 397.833 653.851C397.966 654.406 398.169 654.894 398.443 655.316C398.716 655.738 399.064 656.07 399.486 656.312C399.908 656.547 400.412 656.664 400.998 656.664C401.716 656.664 402.306 656.511 402.767 656.207C403.236 655.902 403.611 655.5 403.892 655C404.173 654.5 404.392 653.957 404.548 653.371V650.547C404.455 650.117 404.318 649.703 404.138 649.304C403.966 648.898 403.74 648.539 403.458 648.226C403.185 647.906 402.845 647.652 402.439 647.464C402.041 647.277 401.568 647.183 401.021 647.183C400.427 647.183 399.916 647.308 399.486 647.558C399.064 647.8 398.716 648.136 398.443 648.566C398.169 648.988 397.966 649.48 397.833 650.043C397.708 650.597 397.646 651.191 397.646 651.824ZM414.814 658.504C413.931 658.504 413.13 658.355 412.412 658.058C411.701 657.754 411.087 657.328 410.572 656.781C410.064 656.234 409.673 655.586 409.4 654.836C409.126 654.086 408.99 653.265 408.99 652.375V651.882C408.99 650.851 409.142 649.933 409.447 649.129C409.751 648.316 410.166 647.629 410.689 647.066C411.212 646.504 411.806 646.078 412.47 645.789C413.134 645.5 413.822 645.355 414.533 645.355C415.439 645.355 416.22 645.511 416.876 645.824C417.541 646.136 418.083 646.574 418.505 647.136C418.927 647.691 419.24 648.347 419.443 649.105C419.646 649.855 419.748 650.675 419.748 651.566V652.539H410.279V650.769H417.58V650.605C417.548 650.043 417.431 649.496 417.228 648.964C417.033 648.433 416.72 647.996 416.291 647.652C415.861 647.308 415.275 647.136 414.533 647.136C414.041 647.136 413.587 647.242 413.173 647.453C412.759 647.656 412.404 647.961 412.107 648.367C411.81 648.773 411.58 649.269 411.416 649.855C411.251 650.441 411.169 651.117 411.169 651.882V652.375C411.169 652.976 411.251 653.543 411.416 654.074C411.587 654.597 411.833 655.058 412.154 655.457C412.482 655.855 412.876 656.168 413.337 656.394C413.806 656.621 414.337 656.734 414.931 656.734C415.697 656.734 416.345 656.578 416.876 656.265C417.408 655.953 417.873 655.535 418.271 655.011L419.583 656.054C419.31 656.468 418.962 656.863 418.541 657.238C418.119 657.613 417.599 657.918 416.982 658.152C416.373 658.386 415.65 658.504 414.814 658.504ZM433.306 656.722C433.822 656.722 434.298 656.617 434.736 656.406C435.173 656.195 435.533 655.906 435.814 655.539C436.095 655.164 436.255 654.738 436.294 654.261H438.357C438.318 655.011 438.064 655.711 437.595 656.359C437.134 657 436.529 657.519 435.779 657.918C435.029 658.308 434.205 658.504 433.306 658.504C432.353 658.504 431.521 658.336 430.81 658C430.107 657.664 429.521 657.203 429.052 656.617C428.591 656.031 428.244 655.359 428.009 654.601C427.783 653.836 427.669 653.027 427.669 652.175V651.683C427.669 650.832 427.783 650.027 428.009 649.269C428.244 648.504 428.591 647.828 429.052 647.242C429.521 646.656 430.107 646.195 430.81 645.859C431.521 645.523 432.353 645.355 433.306 645.355C434.298 645.355 435.166 645.558 435.908 645.964C436.65 646.363 437.232 646.91 437.654 647.605C438.083 648.293 438.318 649.074 438.357 649.949H436.294C436.255 649.425 436.107 648.953 435.849 648.531C435.599 648.109 435.255 647.773 434.818 647.523C434.388 647.265 433.884 647.136 433.306 647.136C432.642 647.136 432.083 647.269 431.63 647.535C431.185 647.793 430.83 648.144 430.564 648.589C430.306 649.027 430.119 649.515 430.001 650.054C429.892 650.586 429.837 651.129 429.837 651.683V652.175C429.837 652.73 429.892 653.277 430.001 653.816C430.111 654.355 430.294 654.843 430.552 655.281C430.818 655.718 431.173 656.07 431.619 656.336C432.072 656.593 432.634 656.722 433.306 656.722ZM448.271 656.101V649.574C448.271 649.074 448.169 648.64 447.966 648.273C447.771 647.898 447.474 647.609 447.076 647.406C446.677 647.203 446.185 647.101 445.599 647.101C445.052 647.101 444.572 647.195 444.158 647.382C443.751 647.57 443.431 647.816 443.197 648.121C442.97 648.425 442.857 648.754 442.857 649.105H440.689C440.689 648.652 440.806 648.203 441.041 647.757C441.275 647.312 441.611 646.91 442.048 646.55C442.494 646.183 443.025 645.894 443.642 645.683C444.267 645.464 444.962 645.355 445.728 645.355C446.65 645.355 447.462 645.511 448.166 645.824C448.876 646.136 449.431 646.609 449.83 647.242C450.236 647.867 450.439 648.652 450.439 649.597V655.504C450.439 655.925 450.474 656.375 450.544 656.851C450.623 657.328 450.736 657.738 450.884 658.082V658.269H448.623C448.513 658.019 448.427 657.687 448.365 657.273C448.302 656.851 448.271 656.461 448.271 656.101ZM448.646 650.582L448.669 652.105H446.478C445.861 652.105 445.31 652.156 444.826 652.257C444.341 652.351 443.935 652.496 443.607 652.691C443.279 652.886 443.029 653.132 442.857 653.429C442.685 653.718 442.599 654.058 442.599 654.449C442.599 654.847 442.689 655.211 442.869 655.539C443.048 655.867 443.318 656.129 443.677 656.324C444.044 656.511 444.494 656.605 445.025 656.605C445.689 656.605 446.275 656.464 446.783 656.183C447.291 655.902 447.693 655.558 447.99 655.152C448.294 654.746 448.458 654.351 448.482 653.968L449.408 655.011C449.353 655.339 449.205 655.703 448.962 656.101C448.72 656.5 448.396 656.882 447.99 657.25C447.591 657.609 447.115 657.91 446.56 658.152C446.013 658.386 445.396 658.504 444.708 658.504C443.849 658.504 443.095 658.336 442.447 658C441.806 657.664 441.306 657.214 440.947 656.652C440.595 656.082 440.419 655.445 440.419 654.742C440.419 654.062 440.552 653.464 440.818 652.949C441.083 652.425 441.466 651.992 441.966 651.648C442.466 651.297 443.068 651.031 443.771 650.851C444.474 650.672 445.259 650.582 446.126 650.582H448.646ZM461.232 654.906C461.232 654.593 461.162 654.304 461.021 654.039C460.888 653.765 460.611 653.519 460.189 653.3C459.775 653.074 459.15 652.879 458.314 652.714C457.611 652.566 456.974 652.39 456.404 652.187C455.841 651.984 455.361 651.738 454.962 651.449C454.572 651.16 454.271 650.82 454.06 650.429C453.849 650.039 453.744 649.582 453.744 649.058C453.744 648.558 453.853 648.086 454.072 647.64C454.298 647.195 454.615 646.8 455.021 646.457C455.435 646.113 455.931 645.843 456.509 645.648C457.087 645.453 457.732 645.355 458.443 645.355C459.458 645.355 460.326 645.535 461.044 645.894C461.763 646.254 462.314 646.734 462.697 647.336C463.08 647.929 463.271 648.589 463.271 649.316H461.103C461.103 648.964 460.998 648.625 460.787 648.297C460.583 647.961 460.283 647.683 459.884 647.464C459.494 647.246 459.013 647.136 458.443 647.136C457.841 647.136 457.353 647.23 456.978 647.418C456.611 647.597 456.341 647.828 456.169 648.109C456.005 648.39 455.923 648.687 455.923 649C455.923 649.234 455.962 649.445 456.041 649.632C456.126 649.812 456.275 649.98 456.486 650.136C456.697 650.285 456.994 650.425 457.376 650.558C457.759 650.691 458.248 650.824 458.841 650.957C459.88 651.191 460.736 651.472 461.408 651.8C462.08 652.129 462.58 652.531 462.908 653.007C463.236 653.484 463.4 654.062 463.4 654.742C463.4 655.297 463.283 655.804 463.048 656.265C462.822 656.726 462.49 657.125 462.052 657.461C461.623 657.789 461.107 658.047 460.505 658.234C459.912 658.414 459.244 658.504 458.501 658.504C457.384 658.504 456.439 658.304 455.666 657.906C454.892 657.507 454.306 656.992 453.908 656.359C453.509 655.726 453.31 655.058 453.31 654.355H455.49C455.521 654.949 455.693 655.422 456.005 655.773C456.318 656.117 456.701 656.363 457.154 656.511C457.607 656.652 458.056 656.722 458.501 656.722C459.095 656.722 459.591 656.644 459.99 656.488C460.396 656.332 460.705 656.117 460.916 655.843C461.126 655.57 461.232 655.257 461.232 654.906ZM473.724 656.101V649.574C473.724 649.074 473.623 648.64 473.419 648.273C473.224 647.898 472.927 647.609 472.529 647.406C472.13 647.203 471.638 647.101 471.052 647.101C470.505 647.101 470.025 647.195 469.611 647.382C469.205 647.57 468.884 647.816 468.65 648.121C468.423 648.425 468.31 648.754 468.31 649.105H466.142C466.142 648.652 466.259 648.203 466.494 647.757C466.728 647.312 467.064 646.91 467.501 646.55C467.947 646.183 468.478 645.894 469.095 645.683C469.72 645.464 470.416 645.355 471.181 645.355C472.103 645.355 472.916 645.511 473.619 645.824C474.33 646.136 474.884 646.609 475.283 647.242C475.689 647.867 475.892 648.652 475.892 649.597V655.504C475.892 655.925 475.927 656.375 475.998 656.851C476.076 657.328 476.189 657.738 476.337 658.082V658.269H474.076C473.966 658.019 473.88 657.687 473.818 657.273C473.755 656.851 473.724 656.461 473.724 656.101ZM474.099 650.582L474.123 652.105H471.931C471.314 652.105 470.763 652.156 470.279 652.257C469.794 652.351 469.388 652.496 469.06 652.691C468.732 652.886 468.482 653.132 468.31 653.429C468.138 653.718 468.052 654.058 468.052 654.449C468.052 654.847 468.142 655.211 468.322 655.539C468.501 655.867 468.771 656.129 469.13 656.324C469.498 656.511 469.947 656.605 470.478 656.605C471.142 656.605 471.728 656.464 472.236 656.183C472.744 655.902 473.146 655.558 473.443 655.152C473.748 654.746 473.912 654.351 473.935 653.968L474.861 655.011C474.806 655.339 474.658 655.703 474.416 656.101C474.173 656.5 473.849 656.882 473.443 657.25C473.044 657.609 472.568 657.91 472.013 658.152C471.466 658.386 470.849 658.504 470.162 658.504C469.302 658.504 468.548 658.336 467.9 658C467.259 657.664 466.759 657.214 466.4 656.652C466.048 656.082 465.873 655.445 465.873 654.742C465.873 654.062 466.005 653.464 466.271 652.949C466.537 652.425 466.919 651.992 467.419 651.648C467.919 651.297 468.521 651.031 469.224 650.851C469.927 650.672 470.712 650.582 471.58 650.582H474.099ZM479.337 657.121C479.337 656.754 479.451 656.445 479.677 656.195C479.912 655.937 480.248 655.808 480.685 655.808C481.123 655.808 481.455 655.937 481.681 656.195C481.916 656.445 482.033 656.754 482.033 657.121C482.033 657.48 481.916 657.785 481.681 658.035C481.455 658.285 481.123 658.41 480.685 658.41C480.248 658.41 479.912 658.285 479.677 658.035C479.451 657.785 479.337 657.48 479.337 657.121Z" fill="#F8F8F8"/>
<defs>
<linearGradient id="paint0_linear_57_314" x1="117.674" y1="219.914" x2="229.124" y2="301.009" gradientUnits="userSpaceOnUse">
<stop stop-color="white"/>
<stop offset="1" stop-color="white" stop-opacity="0"/>
</linearGradient>
<linearGradient id="paint1_linear_57_314" x1="174.372" y1="141.815" x2="285.821" y2="222.91" gradientUnits="userSpaceOnUse">
<stop stop-color="white"/>
<stop offset="1" stop-color="white" stop-opacity="0"/>
</linearGradient>
<linearGradient id="paint2_linear_57_314" x1="100.071" y1="205.588" x2="211.521" y2="286.683" gradientUnits="userSpaceOnUse">
<stop stop-color="white"/>
<stop offset="1" stop-color="white" stop-opacity="0"/>
</linearGradient>
<linearGradient id="paint3_linear_57_314" x1="156.769" y1="127.489" x2="268.218" y2="208.583" gradientUnits="userSpaceOnUse">
<stop stop-color="white"/>
<stop offset="1" stop-color="white" stop-opacity="0"/>
</linearGradient>
<linearGradient id="paint4_linear_57_314" x1="153.344" y1="349.26" x2="170.868" y2="379.545" gradientUnits="userSpaceOnUse">
<stop stop-color="white"/>
<stop offset="1" stop-color="white" stop-opacity="0"/>
</linearGradient>
<linearGradient id="paint5_linear_57_314" x1="310.573" y1="302.546" x2="328.096" y2="332.831" gradientUnits="userSpaceOnUse">
<stop stop-color="white"/>
<stop offset="1" stop-color="white" stop-opacity="0"/>
</linearGradient>
<linearGradient id="paint6_linear_57_314" x1="167.741" y1="367.087" x2="148.687" y2="521.249" gradientUnits="userSpaceOnUse">
<stop stop-color="white"/>
<stop offset="1" stop-color="white" stop-opacity="0"/>
</linearGradient>
<linearGradient id="paint7_linear_57_314" x1="282.523" y1="355.913" x2="358.395" y2="415.17" gradientUnits="userSpaceOnUse">
<stop stop-color="white"/>
<stop offset="1" stop-color="white" stop-opacity="0"/>
</linearGradient>
<linearGradient id="paint8_linear_57_314" x1="327.046" y1="451.332" x2="349.893" y2="469.318" gradientUnits="userSpaceOnUse">
<stop stop-color="white"/>
<stop offset="1" stop-color="white" stop-opacity="0"/>
</linearGradient>
<linearGradient id="paint9_linear_57_314" x1="138.282" y1="287.78" x2="160.399" y2="300.078" gradientUnits="userSpaceOnUse">
<stop stop-color="white"/>
<stop offset="1" stop-color="white" stop-opacity="0"/>
</linearGradient>
</defs>
</svg>
