<svg width="446" height="356" viewBox="0 0 446 356" fill="none" xmlns="http://www.w3.org/2000/svg">
<g clip-path="url(#clip0_57_513)">
<path d="M219.491 80.8849H217.646V29.6522C217.646 21.7879 214.565 14.2458 209.08 8.68493C203.595 3.12407 196.157 9.80611e-06 188.4 1.88191e-10H81.3436C77.503 -1.38724e-05 73.7 0.766948 70.1517 2.25709C66.6034 3.74724 63.3794 5.93139 60.6636 8.68483C57.9479 11.4383 55.7937 14.7071 54.3239 18.3046C52.8541 21.9022 52.0977 25.758 52.0977 29.652V310.719C52.0977 314.613 52.8541 318.469 54.3238 322.066C55.7936 325.664 57.9478 328.933 60.6636 331.686C63.3793 334.44 66.6033 336.624 70.1516 338.114C73.6999 339.604 77.5029 340.371 81.3435 340.371H188.4C192.241 340.371 196.044 339.604 199.592 338.114C203.14 336.624 206.364 334.44 209.08 331.686C211.796 328.933 213.95 325.664 215.42 322.066C216.89 318.469 217.646 314.613 217.646 310.719V117.353H219.491V80.8849Z" fill="#3F3D56"/>
<path d="M189.36 8.41577H175.385C176.028 10.0132 176.273 11.7464 176.1 13.4626C175.926 15.1788 175.339 16.8254 174.39 18.2573C173.441 19.6892 172.159 20.8625 170.657 21.6738C169.155 22.4851 167.48 22.9095 165.778 22.9096H104.447C102.745 22.9095 101.07 22.4851 99.5683 21.6738C98.0666 20.8625 96.7847 19.6892 95.8356 18.2573C94.8865 16.8254 94.2992 15.1788 94.1256 13.4626C93.952 11.7464 94.1973 10.0132 94.8399 8.41577H81.7878C75.9953 8.41577 70.4401 10.7488 66.3442 14.9015C62.2483 19.0543 59.9473 24.6867 59.9473 30.5596V311.214C59.9473 314.122 60.5122 317.002 61.6098 319.688C62.7074 322.375 64.3161 324.816 66.3442 326.872C68.3723 328.928 70.78 330.56 73.4298 331.672C76.0796 332.785 78.9196 333.358 81.7878 333.358H189.36C195.152 333.358 200.708 331.025 204.803 326.872C208.899 322.719 211.2 317.087 211.2 311.214V30.5596C211.2 27.6517 210.635 24.7722 209.538 22.0855C208.44 19.3989 206.832 16.9578 204.803 14.9016C202.775 12.8453 200.368 11.2142 197.718 10.1014C195.068 8.98853 192.228 8.41577 189.36 8.41577H189.36ZM187.012 138.613C187.008 140.133 186.41 141.589 185.35 142.664C184.29 143.739 182.854 144.344 181.355 144.349H154.012C152.513 144.344 151.077 143.739 150.017 142.664C148.957 141.589 148.359 140.133 148.355 138.613V137.179C148.359 135.659 148.957 134.203 150.017 133.128C151.077 132.054 152.513 131.448 154.012 131.444H181.355C182.854 131.448 184.29 132.054 185.35 133.128C186.41 134.203 187.008 135.659 187.012 137.179V138.613ZM190.076 113.28C190.072 114.8 189.475 116.257 188.415 117.331C187.355 118.406 185.918 119.012 184.419 119.016H86.3621C84.8631 119.012 83.4267 118.406 82.3668 117.331C81.3068 116.257 80.7094 114.8 80.705 113.28V111.847C80.7094 110.327 81.3068 108.87 82.3668 107.796C83.4267 106.721 84.8631 106.115 86.3621 106.111H184.419C185.918 106.115 187.355 106.721 188.415 107.796C189.475 108.87 190.072 110.327 190.076 111.847V113.28ZM190.076 87.9477C190.072 89.4675 189.475 90.9238 188.415 91.9985C187.355 93.0732 185.918 93.6789 184.419 93.6834H86.3621C84.8631 93.679 83.4267 93.0732 82.3668 91.9985C81.3068 90.9238 80.7094 89.4675 80.705 87.9477V86.5137C80.7094 84.9939 81.3068 83.5376 82.3668 82.4629C83.4267 81.3882 84.8631 80.7825 86.3621 80.778H184.419C185.918 80.7825 187.355 81.3882 188.415 82.4629C189.475 83.5376 190.072 84.9939 190.076 86.5137V87.9477ZM190.076 62.6149C190.072 64.1348 189.475 65.5911 188.415 66.6658C187.355 67.7405 185.918 68.3462 184.419 68.3506H86.3621C84.8631 68.3462 83.4267 67.7405 82.3668 66.6658C81.3068 65.5911 80.7094 64.1348 80.705 62.6149V61.181C80.7094 59.6611 81.3068 58.2048 82.3668 57.1301C83.4267 56.0554 84.8631 55.4497 86.3621 55.4453H184.419C185.918 55.4497 187.355 56.0554 188.415 57.1301C189.475 58.2048 190.072 59.6611 190.076 61.181V62.6149Z" fill="white"/>
<path d="M88.4836 116.148C90.3061 116.148 91.7836 114.65 91.7836 112.802C91.7836 110.955 90.3061 109.457 88.4836 109.457C86.6611 109.457 85.1836 110.955 85.1836 112.802C85.1836 114.65 86.6611 116.148 88.4836 116.148Z" fill="white"/>
<path d="M99.3264 116.148C101.149 116.148 102.626 114.65 102.626 112.802C102.626 110.955 101.149 109.457 99.3264 109.457C97.5038 109.457 96.0264 110.955 96.0264 112.802C96.0264 114.65 97.5038 116.148 99.3264 116.148Z" fill="white"/>
<path d="M110.169 116.148C111.992 116.148 113.469 114.65 113.469 112.802C113.469 110.955 111.992 109.457 110.169 109.457C108.347 109.457 106.869 110.955 106.869 112.802C106.869 114.65 108.347 116.148 110.169 116.148Z" fill="white"/>
<path d="M121.012 116.148C122.835 116.148 124.312 114.65 124.312 112.802C124.312 110.955 122.835 109.457 121.012 109.457C119.19 109.457 117.712 110.955 117.712 112.802C117.712 114.65 119.19 116.148 121.012 116.148Z" fill="white"/>
<path d="M156.369 141.481C158.192 141.481 159.669 139.983 159.669 138.135C159.669 136.287 158.192 134.789 156.369 134.789C154.547 134.789 153.069 136.287 153.069 138.135C153.069 139.983 154.547 141.481 156.369 141.481Z" fill="white"/>
<path d="M167.212 141.481C169.035 141.481 170.512 139.983 170.512 138.135C170.512 136.287 169.035 134.789 167.212 134.789C165.39 134.789 163.912 136.287 163.912 138.135C163.912 139.983 165.39 141.481 167.212 141.481Z" fill="white"/>
<path d="M178.055 141.481C179.877 141.481 181.355 139.983 181.355 138.135C181.355 136.287 179.877 134.789 178.055 134.789C176.232 134.789 174.755 136.287 174.755 138.135C174.755 139.983 176.232 141.481 178.055 141.481Z" fill="white"/>
<path d="M190.835 181.487H79.0034C76.3761 181.487 73.8564 182.545 71.9986 184.428C70.1409 186.312 69.0972 188.867 69.0972 191.531V246.774C69.0972 249.438 70.1409 251.992 71.9986 253.876C73.8564 255.76 76.3761 256.818 79.0034 256.818H190.835C193.462 256.818 195.982 255.76 197.84 253.876C199.698 251.992 200.741 249.438 200.741 246.774V191.531C200.741 188.867 199.698 186.312 197.84 184.428C195.982 182.545 193.462 181.487 190.835 181.487H190.835ZM76.2366 188.338C76.4574 188.298 81.694 187.394 86.0302 190.04C90.3661 192.684 92.032 197.799 92.1006 198.015L92.2759 198.567L91.7133 198.668C90.9105 198.795 90.0989 198.855 89.2865 198.849C86.7091 198.899 84.1655 198.249 81.9194 196.966C77.5835 194.322 75.9178 189.207 75.8492 188.991L75.6739 188.439L76.2366 188.338ZM100.512 239.628H80.5662C79.1114 239.628 77.7162 239.042 76.6876 237.999C75.6589 236.956 75.081 235.542 75.081 234.067C75.081 232.592 75.6589 231.177 76.6876 230.134C77.7162 229.091 79.1114 228.505 80.5662 228.505H100.512C101.967 228.505 103.362 229.091 104.391 230.134C105.42 231.177 105.997 232.592 105.997 234.067C105.997 235.542 105.42 236.956 104.391 237.999C103.362 239.042 101.967 239.628 100.512 239.628ZM191.267 238.617C191.262 240.225 190.63 241.765 189.509 242.902C188.388 244.039 186.869 244.679 185.283 244.684H170.323C168.738 244.679 167.219 244.039 166.097 242.902C164.976 241.765 164.344 240.225 164.34 238.617V229.517C164.344 227.909 164.976 226.369 166.097 225.232C167.219 224.095 168.738 223.454 170.323 223.45H185.283C186.869 223.454 188.388 224.095 189.509 225.232C190.63 226.369 191.262 227.909 191.267 229.517L191.267 238.617Z" fill="#E7344C"/>
<path d="M175.147 236.742H169.132C168.703 236.742 168.291 236.915 167.987 237.223C167.683 237.531 167.513 237.948 167.513 238.384C167.513 238.819 167.683 239.237 167.987 239.545C168.291 239.852 168.703 240.025 169.132 240.025H175.147C175.576 240.025 175.988 239.852 176.292 239.545C176.596 239.237 176.766 238.819 176.766 238.384C176.766 237.948 176.596 237.531 176.292 237.223C175.988 236.915 175.576 236.742 175.147 236.742Z" fill="#3F3D56"/>
<path d="M186.251 236.742H180.237C179.807 236.742 179.395 236.915 179.091 237.223C178.788 237.531 178.617 237.948 178.617 238.384C178.617 238.819 178.788 239.237 179.091 239.545C179.395 239.852 179.807 240.025 180.237 240.025H186.251C186.681 240.025 187.093 239.852 187.396 239.545C187.7 239.237 187.871 238.819 187.871 238.384C187.871 237.948 187.7 237.531 187.396 237.223C187.093 236.915 186.681 236.742 186.251 236.742Z" fill="#3F3D56"/>
<path d="M175.146 232.107H169.131C168.702 232.107 168.29 232.28 167.986 232.588C167.682 232.896 167.512 233.313 167.512 233.749C167.512 234.184 167.682 234.602 167.986 234.91C168.29 235.218 168.702 235.391 169.131 235.391H175.146C175.575 235.391 175.987 235.218 176.291 234.91C176.595 234.602 176.765 234.184 176.765 233.749C176.765 233.313 176.595 232.896 176.291 232.588C175.987 232.28 175.575 232.107 175.146 232.107Z" fill="#3F3D56"/>
<path d="M186.25 232.107H180.236C179.806 232.107 179.394 232.28 179.091 232.588C178.787 232.896 178.616 233.313 178.616 233.749C178.616 234.184 178.787 234.602 179.091 234.91C179.394 235.218 179.806 235.391 180.236 235.391H186.25C186.68 235.391 187.092 235.218 187.396 234.91C187.699 234.602 187.87 234.184 187.87 233.749C187.87 233.313 187.699 232.896 187.396 232.588C187.092 232.28 186.68 232.107 186.25 232.107H186.25Z" fill="#3F3D56"/>
<path d="M175.146 227.566H169.131C168.702 227.566 168.29 227.739 167.986 228.047C167.682 228.355 167.512 228.772 167.512 229.208C167.512 229.643 167.682 230.061 167.986 230.369C168.29 230.677 168.702 230.85 169.131 230.85H175.146C175.575 230.85 175.987 230.677 176.291 230.369C176.595 230.061 176.765 229.643 176.765 229.208C176.765 228.772 176.595 228.355 176.291 228.047C175.987 227.739 175.575 227.566 175.146 227.566Z" fill="#3F3D56"/>
<path d="M186.25 227.566H180.236C179.806 227.566 179.394 227.739 179.091 228.047C178.787 228.355 178.616 228.772 178.616 229.208C178.616 229.643 178.787 230.061 179.091 230.369C179.394 230.677 179.806 230.85 180.236 230.85H186.25C186.68 230.85 187.092 230.677 187.396 230.369C187.699 230.061 187.87 229.643 187.87 229.208C187.87 228.772 187.699 228.355 187.396 228.047C187.092 227.739 186.68 227.566 186.25 227.566H186.25Z" fill="#3F3D56"/>
<path d="M268.291 202.297H253.705V217.086H268.291V202.297Z" fill="#E6E6E6"/>
<path d="M236.513 211.276H260.477V235.573H236.513V211.276ZM259.435 212.332H237.555V234.516H259.435V212.332Z" fill="#3F3D56"/>
<path d="M14.5867 80.2849H0V95.0742H14.5867V80.2849Z" fill="#E6E6E6"/>
<path d="M31.7783 86.095H7.81445V61.7982H31.7783V86.095ZM8.85636 85.0386H30.7364V62.8546H8.85636V85.0386Z" fill="#3F3D56"/>
<path d="M340.223 349.354H333.836L330.798 324.377H340.224L340.223 349.354Z" fill="#FFB8B8"/>
<path d="M329.274 347.503H341.591V355.366H321.519C321.519 353.281 322.336 351.281 323.79 349.806C325.244 348.332 327.217 347.503 329.274 347.503Z" fill="#2F2E41"/>
<path d="M372.001 349.354H365.614L362.576 324.377H372.002L372.001 349.354Z" fill="#FFB8B8"/>
<path d="M361.052 347.503H373.37V355.366H353.297C353.297 353.281 354.114 351.281 355.568 349.806C357.023 348.332 358.995 347.503 361.052 347.503Z" fill="#2F2E41"/>
<path d="M308.184 260.03C307.724 259.343 307.419 258.563 307.289 257.744C307.159 256.925 307.208 256.087 307.432 255.289C307.656 254.492 308.05 253.753 308.585 253.126C309.121 252.5 309.786 252 310.533 251.662L332.245 190.99L342.928 196.901L318.138 254.881C318.615 256.191 318.602 257.633 318.1 258.934C317.598 260.235 316.644 261.304 315.417 261.938C314.189 262.573 312.775 262.729 311.442 262.377C310.109 262.026 308.95 261.19 308.184 260.03Z" fill="#FFB8B8"/>
<path d="M368.739 271.43C368.029 271.018 367.417 270.452 366.946 269.774C366.475 269.096 366.157 268.321 366.013 267.504C365.869 266.688 365.904 265.849 366.115 265.047C366.325 264.246 366.706 263.501 367.232 262.865L360.506 198.685L372.664 199.248L375.459 262.377C376.454 263.343 377.066 264.645 377.177 266.037C377.289 267.429 376.893 268.814 376.065 269.93C375.236 271.046 374.033 271.815 372.683 272.091C371.333 272.368 369.929 272.133 368.739 271.43V271.43Z" fill="#FFB8B8"/>
<path d="M349.344 179.752C356.41 179.752 362.139 173.944 362.139 166.779C362.139 159.615 356.41 153.806 349.344 153.806C342.277 153.806 336.548 159.615 336.548 166.779C336.548 173.944 342.277 179.752 349.344 179.752Z" fill="#FFB8B8"/>
<path d="M368.657 256.834H330.082L330.128 256.529C330.198 256.074 337.003 210.873 331.984 196.085C331.48 194.632 331.525 193.041 332.108 191.619C332.692 190.197 333.774 189.044 335.146 188.382H335.146C342.32 184.957 356.092 180.739 367.716 190.975C369.426 192.507 370.762 194.42 371.617 196.565C372.473 198.71 372.824 201.027 372.644 203.333L368.657 256.834Z" fill="#CCCCCC"/>
<path d="M337.491 217.553L320.124 213.981L328.265 194.422C328.752 192.528 329.96 190.906 331.624 189.914C333.289 188.922 335.274 188.639 337.143 189.129C339.013 189.618 340.615 190.839 341.598 192.524C342.58 194.21 342.864 196.221 342.385 198.118L337.491 217.553Z" fill="#CCCCCC"/>
<path d="M359.733 224.186L358.689 199.92C357.898 195.359 360.473 191.046 364.434 190.341C368.396 189.639 372.265 192.803 373.06 197.398L376.985 220.072L359.733 224.186Z" fill="#CCCCCC"/>
<path d="M367.374 253.929C373.58 277.896 374.258 308.369 372.583 341.608L364.248 340.552L349.14 277.169L340.805 341.608L331.428 341.08C328.626 306.204 325.899 276.263 330.386 256.57L367.374 253.929Z" fill="#2F2E41"/>
<path d="M357.774 176.805C355.387 179.383 350.954 177.999 350.643 174.477C350.619 174.204 350.62 173.929 350.648 173.656C350.809 172.096 351.698 170.679 351.485 169.032C351.437 168.622 351.286 168.231 351.047 167.897C349.145 165.314 344.68 169.052 342.885 166.714C341.784 165.281 343.078 163.024 342.233 161.421C341.118 159.307 337.816 160.35 335.745 159.192C333.441 157.903 333.579 154.319 335.096 152.139C336.946 149.48 340.189 148.062 343.391 147.857C346.594 147.653 349.774 148.531 352.764 149.712C356.162 151.054 359.53 152.909 361.621 155.938C364.163 159.621 364.408 164.573 363.136 168.88C362.363 171.499 359.723 174.7 357.774 176.805Z" fill="#2F2E41"/>
<path d="M445.479 356H246.996C246.857 356 246.725 355.944 246.627 355.845C246.53 355.746 246.475 355.612 246.475 355.472C246.475 355.332 246.53 355.197 246.627 355.098C246.725 354.999 246.857 354.944 246.996 354.944H445.479C445.617 354.944 445.75 354.999 445.847 355.098C445.945 355.197 446 355.332 446 355.472C446 355.612 445.945 355.746 445.847 355.845C445.75 355.944 445.617 356 445.479 356Z" fill="#3F3D56"/>
</g>
<defs>
<clipPath id="clip0_57_513">
<rect width="446" height="356" fill="white"/>
</clipPath>
</defs>
</svg>
